<svg xmlns="http://www.w3.org/2000/svg" xmlns:xlink="http://www.w3.org/1999/xlink" id="body_1" preserveAspectRatio="xMinYMin meet" viewBox="0 0 1121 793"><defs><clipPath id="1"><path id="" clip-rule="evenodd" transform="matrix(1 0 0 1 0 0)" d="M0 595L0 -0.2999878L0 -0.2999878L841.9 -0.2999878L841.9 -0.2999878L841.9 595L841.9 595L0 595z" /></clipPath><clipPath id="2"><path id="" clip-rule="evenodd" transform="matrix(1 0 0 1 0 0)" d="M0 -0.2999878L841.9 -0.2999878L841.9 -0.2999878L841.9 595L841.9 595L0 595z" /></clipPath><clipPath id="3"><path id="" clip-rule="evenodd" transform="matrix(1 0 0 1 0 0)" d="M0 -0.2999878L841.9 -0.2999878L841.9 -0.2999878L841.9 595L841.9 595L0 595z" /></clipPath><clipPath id="4"><path id="" clip-rule="evenodd" transform="matrix(1 0 0 1 0 0)" d="M50.85 538.8L286 538.8L286 538.8L286 578.05L286 578.05L50.85 578.05z" /></clipPath><clipPath id="5"><path id="" clip-rule="evenodd" transform="matrix(1 0 0 1 0 0)" d="M0 -0.2999878L841.9 -0.2999878L841.9 -0.2999878L841.9 595L841.9 595L0 595z" /></clipPath><clipPath id="6"><path id="" clip-rule="evenodd" transform="matrix(1 0 0 1 0 0)" d="M41.35 287.1L542.95 287.1L542.95 287.1L542.95 498.5L542.95 498.5L41.35 498.5z" /></clipPath><clipPath id="7"><path id="" clip-rule="evenodd" transform="matrix(1 0 0 1 0 0)" d="M0 -0.2999878L841.9 -0.2999878L841.9 -0.2999878L841.9 595L841.9 595L0 595z" /></clipPath><clipPath id="8"><path id="" clip-rule="evenodd" transform="matrix(1 0 0 1 0 0)" d="M0 -0.2999878L841.9 -0.2999878L841.9 -0.2999878L841.9 595L841.9 595L0 595z" /></clipPath><clipPath id="9"><path id="" clip-rule="evenodd" transform="matrix(1 0 0 1 0 0)" d="M21 42.75L240.2 42.75L240.2 42.75L240.2 131.4L240.2 131.4L21 131.4z" /></clipPath><clipPath id="10"><path id="" clip-rule="evenodd" transform="matrix(1 0 0 1 0 0)" d="M0 -0.2999878L841.9 -0.2999878L841.9 -0.2999878L841.9 595L841.9 595L0 595z" /></clipPath><clipPath id="11"><path id="" clip-rule="evenodd" transform="matrix(1 0 0 1 0 0)" d="M0 -0.2999878L841.9 -0.2999878L841.9 -0.2999878L841.9 595L841.9 595L0 595z" /></clipPath><clipPath id="12"><path id="" clip-rule="evenodd" transform="matrix(1 0 0 1 0 0)" d="M593.9 324.55L814.8 324.55L814.8 324.55L814.8 430.45L814.8 430.45L593.9 430.45z" /></clipPath><clipPath id="13"><path id="" clip-rule="evenodd" transform="matrix(1 0 0 1 0 0)" d="M0 -0.2999878L841.9 -0.2999878L841.9 -0.2999878L841.9 595L841.9 595L0 595z" /></clipPath><clipPath id="14"><path id="" clip-rule="evenodd" transform="matrix(1 0 0 1 0 0)" d="M0 -0.2999878L841.9 -0.2999878L841.9 -0.2999878L841.9 595L841.9 595L0 595z" /></clipPath><clipPath id="15"><path id="" clip-rule="evenodd" transform="matrix(1 0 0 1 0 0)" d="M638 203.6L780.35 203.6L780.35 203.6L780.35 310.6L780.35 310.6L638 310.6z" /></clipPath></defs><g transform="matrix(1.333333 0 0 1.333333 0 0)"><g clip-path="url(#1)"><g clip-path="url(#2)"><path id="1" transform="matrix(1 0 0 -1 0 595)" d="M34.68 82.29999C 34.65 88.32498 39.575 93.25 45.6 93.22L45.6 93.22L148.44 93.22C 154.525 93.25 159.45 88.32498 159.45 82.25C 159.45 76.17499 154.525 71.25 148.44 71.26001L148.44 71.26001L45.6 71.26001C 39.575 71.25 34.65 76.17499 34.68 82.29999" stroke="none" fill="#EDEDED" fill-rule="evenodd" /><path id="2" transform="matrix(1 0 0 -1 0 595)" d="M42.12 82.29999C 42.15 88.32498 47.075 93.25 53.16 93.22L53.16 93.22L141 93.22C 147.025 93.25 151.95 88.32498 151.95 82.25C 151.95 76.17499 147.025 71.25 141 71.26001L141 71.26001L53.16 71.26001C 47.075 71.25 42.15 76.17499 42.12 82.29999" stroke="none" fill="#A6A6A6" fill-rule="evenodd" /><path id="3" transform="matrix(1 0 0 -1 0 595)" d="M22.08 328.42C 22.05 334.475 26.975 339.4 33 339.34L33 339.34L135.84 339.34C 141.925 339.4 146.85 334.475 146.85 328.4C 146.85 322.325 141.925 317.4 135.84 317.38L135.84 317.38L33 317.38C 26.975 317.4 22.05 322.325 22.08 328.42" stroke="none" fill="#EDEDED" fill-rule="evenodd" /><path id="4" transform="matrix(1 0 0 -1 0 595)" d="M29.52 328.42C 29.55 334.475 34.475 339.4 40.56 339.34L40.56 339.34L128.4 339.34C 134.425 339.4 139.35 334.475 139.35 328.4C 139.35 322.325 134.425 317.4 128.4 317.38L128.4 317.38L40.56 317.38C 34.475 317.4 29.55 322.325 29.52 328.42" stroke="none" fill="#A6A6A6" fill-rule="evenodd" /></g><g clip-path="url(#3)"><g clip-path="url(#4)"></g></g><g clip-path="url(#5)"><g clip-path="url(#6)"></g></g><g clip-path="url(#7)"><g transform="matrix(0.24 0 0 0.2405063 58.15 245.15)"><g transform="matrix(1 0 0 1 0 0)"><image x="0" y="0" xlink:href="img_01.png" width="315" height="158" /></g></g><g transform="matrix(0.2401869 0 0 0.2411392 71.4 491.25)"><g transform="matrix(1 0 0 1 0 0)"><image x="0" y="0" xlink:href="img_02.png" width="321" height="158" /></g></g><path id="439" transform="matrix(1 0 0 -1 0 595)" d="M-50.04 531.58C -50.05 616.166 18.842 684.7 103.825 684.7C 188.808 684.7 257.7 616.166 257.7 531.625C 257.7 447.084 188.808 378.55 103.825 378.55C 18.842 378.55 -50.05 447.084 -50.04 531.58" stroke="none" fill="#EDEDED" fill-rule="evenodd" /><path id="440" transform="matrix(1 0 0 -1 0 595)" d="M529.005 446.834L529.005 446.848L529.014 445.372L529.014 445.386L529.042 443.914L529.041 443.928L529.087 442.461L529.087 442.475L529.15 441.012L529.15 441.026L529.232 439.569L529.231 439.583L529.33 438.13L529.329 438.144L529.447 436.696L529.445 436.71L529.581 435.268L529.579 435.281L529.732 433.844L529.73 433.858L529.9 432.426L529.899 432.44L530.086 431.014L530.084 431.028L530.289 429.607L530.287 429.621L530.508 428.206L530.506 428.219L530.745 426.81L530.743 426.824L530.998 425.421L530.996 425.434L531.268 424.037L531.265 424.051L531.554 422.66L531.551 422.673L531.857 421.288L531.854 421.302L532.176 419.924L532.173 419.937L532.511 418.565L532.508 418.579L532.862 417.213L532.859 417.227L533.23 415.868L533.226 415.881L533.613 414.53L533.609 414.543L534.011 413.198L534.007 413.211L534.426 411.874L534.422 411.887L534.856 410.556L534.851 410.569L535.301 409.246L535.296 409.259L535.761 407.943L535.757 407.956L536.237 406.648L536.232 406.661L536.728 405.36L536.723 405.373L537.234 404.08L537.229 404.093L537.755 402.808L537.749 402.82L538.29 401.543L538.285 401.555L538.84 400.286L538.835 400.299L539.405 399.038L539.399 399.05L539.984 397.798L539.978 397.81L540.577 396.566L540.571 396.578L541.185 395.343L541.179 395.355L541.806 394.128L541.8 394.14L542.442 392.921L542.436 392.933L543.091 391.724L543.085 391.736L543.755 390.535L543.748 390.547L544.432 389.356L544.425 389.368L545.122 388.185L545.115 388.197L545.826 387.024L545.819 387.036L546.543 385.872L546.536 385.884L547.274 384.73L547.266 384.741L548.017 383.597L548.01 383.608L548.774 382.474L548.766 382.485L549.543 381.36L549.536 381.371L550.326 380.257L550.318 380.267L551.121 379.163L551.113 379.174L551.928 378.079L551.92 378.09L552.748 377.006L552.74 377.017L553.581 375.943L553.572 375.954L554.425 374.891L554.417 374.901L555.282 373.849L555.273 373.859L556.15 372.817L556.142 372.828L557.031 371.797L557.022 371.807L557.923 370.787L557.914 370.797L558.828 369.789L558.818 369.798L559.743 368.801L559.734 368.811L560.67 367.825L560.661 367.834L561.609 366.86L561.599 366.869L562.559 365.906L562.549 365.916L563.519 364.964L563.51 364.974L564.491 364.034L564.482 364.043L565.474 363.115L565.464 363.124L566.468 362.209L566.458 362.218L567.472 361.314L567.462 361.323L568.487 360.431L568.477 360.44L569.512 359.561L569.502 359.57L570.548 358.703L570.538 358.712L571.594 357.858L571.584 357.866L572.651 357.025L572.64 357.033L573.717 356.204L573.706 356.212L574.793 355.397L574.782 355.405L575.879 354.602L575.868 354.61L576.975 353.82L576.964 353.828L578.08 353.052L578.069 353.06L579.195 352.296L579.183 352.304L580.319 351.554L580.307 351.562L581.452 350.826L581.441 350.833L582.595 350.111L582.583 350.118L583.747 349.41L583.735 349.417L584.907 348.722L584.895 348.729L586.077 348.048L586.065 348.055L587.255 347.389L587.243 347.395L588.442 346.743L588.43 346.749L589.637 346.112L589.625 346.118L590.841 345.495L590.828 345.501L592.053 344.892L592.04 344.898L593.273 344.304L593.26 344.31L594.501 343.73L594.489 343.736L595.737 343.172L595.725 343.177L596.981 342.628L596.969 342.634L598.233 342.099L598.22 342.105L599.493 341.586L599.48 341.591L600.76 341.087L600.747 341.092L602.034 340.604L602.021 340.609L603.316 340.136L603.303 340.141L604.605 339.684L604.591 339.689L605.901 339.248L605.887 339.252L607.204 338.827L607.19 338.831L608.514 338.422L608.5 338.426L609.83 338.033L609.817 338.037L611.154 337.66L611.14 337.664L612.483 337.304L612.47 337.307L613.82 336.964L613.806 336.967L615.162 336.64L615.148 336.643L616.511 336.332L616.497 336.336L617.866 336.042L617.852 336.045L619.227 335.768L619.213 335.771L620.594 335.511L620.58 335.513L621.967 335.271L621.952 335.273L623.345 335.048L623.331 335.05L624.729 334.842L624.715 334.844L626.118 334.654L626.104 334.656L627.513 334.483L627.499 334.484L628.913 334.329L628.899 334.331L630.318 334.193L630.304 334.195L631.729 334.075L631.714 334.077L633.144 333.975L633.13 333.976L634.564 333.893L634.55 333.894L635.989 333.829L635.974 333.829L637.418 333.783L637.404 333.783L638.852 333.755L638.838 333.756L640.29 333.746L640.276 333.746L641.729 333.756L641.714 333.755L643.163 333.783L643.148 333.783L644.592 333.829L644.578 333.829L646.017 333.894L646.002 333.893L647.437 333.976L647.422 333.975L648.852 334.077L648.838 334.075L650.262 334.195L650.248 334.193L651.667 334.331L651.653 334.329L653.067 334.484L653.053 334.483L654.462 334.656L654.448 334.654L655.852 334.844L655.837 334.842L657.235 335.05L657.221 335.048L658.614 335.273L658.6 335.271L659.986 335.513L659.972 335.511L661.353 335.771L661.339 335.768L662.714 336.045L662.7 336.042L664.069 336.336L664.055 336.332L665.418 336.643L665.404 336.64L666.76 336.967L666.747 336.964L668.097 337.307L668.083 337.304L669.427 337.664L669.413 337.66L670.75 338.037L670.736 338.033L672.066 338.426L672.053 338.422L673.376 338.831L673.363 338.827L674.679 339.252L674.666 339.248L675.975 339.689L675.962 339.684L677.264 340.141L677.25 340.136L678.545 340.609L678.532 340.604L679.82 341.092L679.807 341.087L681.087 341.591L681.074 341.586L682.346 342.105L682.333 342.099L683.598 342.634L683.585 342.628L684.842 343.177L684.829 343.172L686.078 343.736L686.065 343.73L687.306 344.31L687.293 344.304L688.526 344.898L688.514 344.892L689.738 345.501L689.726 345.495L690.941 346.118L690.929 346.112L692.137 346.749L692.125 346.743L693.323 347.395L693.311 347.389L694.502 348.055L694.49 348.048L695.671 348.729L695.659 348.722L696.831 349.417L696.82 349.41L697.983 350.118L697.971 350.111L699.125 350.833L699.114 350.826L700.259 351.562L700.247 351.554L701.383 352.304L701.372 352.296L702.498 353.06L702.486 353.052L703.603 353.828L703.592 353.82L704.698 354.61L704.687 354.602L705.784 355.405L705.773 355.397L706.86 356.212L706.85 356.204L707.926 357.033L707.916 357.025L708.983 357.866L708.972 357.858L710.028 358.712L710.018 358.703L711.064 359.57L711.054 359.561L712.089 360.44L712.079 360.431L713.104 361.323L713.094 361.314L714.108 362.218L714.099 362.209L715.102 363.124L715.092 363.115L716.085 364.043L716.075 364.034L717.057 364.974L717.047 364.964L718.017 365.916L718.008 365.906L718.967 366.869L718.958 366.86L719.905 367.834L719.896 367.825L720.832 368.811L720.823 368.801L721.748 369.798L721.739 369.789L722.652 370.797L722.643 370.787L723.544 371.807L723.535 371.797L724.425 372.828L724.416 372.817L725.293 373.859L725.285 373.849L726.15 374.901L726.141 374.891L726.994 375.954L726.986 375.943L727.826 377.017L727.818 377.006L728.646 378.09L728.638 378.079L729.454 379.174L729.446 379.163L730.248 380.267L730.241 380.257L731.031 381.371L731.023 381.36L731.8 382.485L731.792 382.474L732.556 383.608L732.549 383.597L733.3 384.741L733.292 384.73L734.03 385.884L734.023 385.872L734.747 387.036L734.74 387.024L735.451 388.197L735.444 388.185L736.141 389.368L736.135 389.356L736.818 390.547L736.812 390.535L737.481 391.736L737.475 391.724L738.131 392.933L738.124 392.921L738.766 394.14L738.76 394.128L739.388 395.355L739.382 395.343L739.995 396.578L739.989 396.566L740.588 397.81L740.583 397.798L741.167 399.05L741.162 399.038L741.732 400.299L741.726 400.286L742.282 401.555L742.276 401.543L742.817 402.82L742.812 402.808L743.337 404.093L743.332 404.08L743.843 405.373L743.838 405.36L744.334 406.661L744.329 406.648L744.809 407.956L744.805 407.943L745.27 409.259L745.265 409.246L745.715 410.569L745.711 410.556L746.145 411.887L746.141 411.874L746.559 413.211L746.555 413.198L746.958 414.543L746.954 414.53L747.34 415.881L747.337 415.868L747.707 417.227L747.704 417.213L748.058 418.579L748.055 418.565L748.393 419.937L748.39 419.924L748.712 421.302L748.709 421.288L749.015 422.673L749.012 422.66L749.301 424.051L749.298 424.037L749.571 425.434L749.568 425.421L749.824 426.824L749.821 426.81L750.06 428.219L750.058 428.206L750.28 429.621L750.277 429.607L750.482 431.028L750.48 431.014L750.668 432.44L750.666 432.426L750.836 433.858L750.834 433.844L750.987 435.281L750.986 435.268L751.121 436.71L751.12 436.696L751.237 438.144L751.236 438.13L751.336 439.583L751.335 439.569L751.417 441.026L751.416 441.012L751.48 442.475L751.479 442.461L751.525 443.928L751.525 443.914L751.552 445.386L751.552 445.372L751.561 446.848L751.561 446.834L751.552 448.31L751.552 448.296L751.525 449.768L751.525 449.754L751.479 451.221L751.48 451.207L751.416 452.67L751.417 452.656L751.335 454.113L751.336 454.099L751.236 455.552L751.237 455.538L751.12 456.986L751.121 456.972L750.986 458.414L750.987 458.4L750.834 459.838L750.836 459.824L750.666 461.256L750.668 461.242L750.48 462.668L750.482 462.654L750.277 464.075L750.28 464.061L750.058 465.476L750.06 465.463L749.821 466.872L749.824 466.858L749.568 468.261L749.571 468.248L749.298 469.645L749.301 469.631L749.012 471.022L749.015 471.009L748.709 472.394L748.712 472.38L748.39 473.758L748.393 473.745L748.055 475.117L748.058 475.103L747.704 476.469L747.707 476.455L747.337 477.814L747.34 477.801L746.954 479.152L746.958 479.139L746.555 480.484L746.559 480.471L746.141 481.808L746.145 481.795L745.711 483.126L745.715 483.113L745.265 484.436L745.27 484.423L744.805 485.739L744.809 485.726L744.329 487.034L744.334 487.021L743.838 488.322L743.843 488.309L743.332 489.602L743.337 489.589L742.812 490.874L742.817 490.862L742.276 492.139L742.282 492.126L741.726 493.395L741.732 493.383L741.162 494.644L741.167 494.631L740.583 495.884L740.588 495.872L739.989 497.116L739.995 497.104L739.382 498.339L739.388 498.327L738.76 499.554L738.766 499.542L738.124 500.76L738.131 500.749L737.475 501.958L737.481 501.946L736.812 503.146L736.818 503.135L736.135 504.326L736.141 504.314L735.444 505.496L735.451 505.485L734.74 506.658L734.747 506.646L734.023 507.81L734.03 507.798L733.292 508.952L733.3 508.941L732.549 510.085L732.556 510.074L731.792 511.208L731.8 511.197L731.023 512.322L731.031 512.311L730.241 513.425L730.248 513.414L729.446 514.519L729.454 514.508L728.638 515.602L728.646 515.592L727.818 516.676L727.826 516.665L726.986 517.739L726.994 517.728L726.141 518.791L726.15 518.781L725.285 519.833L725.293 519.823L724.416 520.865L724.425 520.854L723.535 521.885L723.544 521.875L722.643 522.895L722.652 522.885L721.739 523.893L721.748 523.883L720.823 524.881L720.832 524.871L719.896 525.857L719.905 525.848L718.958 526.822L718.967 526.813L718.008 527.776L718.017 527.766L717.047 528.718L717.057 528.708L716.075 529.648L716.085 529.639L715.092 530.567L715.102 530.557L714.099 531.473L714.108 531.464L713.094 532.368L713.104 532.359L712.079 533.25L712.089 533.242L711.054 534.121L711.064 534.112L710.018 534.979L710.028 534.97L708.972 535.824L708.983 535.816L707.916 536.657L707.926 536.649L706.85 537.478L706.86 537.469L705.773 538.285L705.784 538.277L704.687 539.08L704.698 539.072L703.592 539.862L703.603 539.854L702.486 540.63L702.498 540.622L701.372 541.385L701.383 541.378L700.247 542.127L700.259 542.12L699.114 542.856L699.125 542.849L697.971 543.571L697.983 543.564L696.82 544.272L696.831 544.265L695.659 544.96L695.671 544.953L694.49 545.634L694.502 545.627L693.311 546.293L693.323 546.287L692.125 546.939L692.137 546.932L690.929 547.57L690.941 547.564L689.726 548.187L689.738 548.181L688.514 548.79L688.526 548.784L687.293 549.378L687.306 549.372L686.065 549.951L686.078 549.946L684.829 550.51L684.842 550.504L683.585 551.054L683.598 551.048L682.333 551.583L682.346 551.577L681.074 552.096L681.087 552.091L679.807 552.595L679.82 552.59L678.532 553.078L678.545 553.073L677.25 553.546L677.264 553.541L675.962 553.998L675.975 553.993L674.666 554.434L674.679 554.43L673.363 554.855L673.376 554.851L672.053 555.26L672.066 555.256L670.736 555.649L670.75 555.645L669.413 556.022L669.427 556.018L668.083 556.378L668.097 556.374L666.747 556.718L666.76 556.715L665.404 557.042L665.418 557.039L664.055 557.349L664.069 557.346L662.7 557.64L662.714 557.637L661.339 557.914L661.353 557.911L659.972 558.171L659.986 558.168L658.6 558.411L658.614 558.409L657.221 558.634L657.235 558.632L655.837 558.84L655.852 558.838L654.448 559.028L654.462 559.026L653.053 559.199L653.067 559.197L651.653 559.353L651.667 559.351L650.248 559.488L650.262 559.487L648.838 559.606L648.852 559.605L647.422 559.707L647.437 559.706L646.002 559.789L646.017 559.788L644.578 559.853L644.592 559.852L643.148 559.899L643.163 559.899L641.714 559.926L641.729 559.926L640.276 559.936L640.29 559.936L638.838 559.926L638.852 559.926L637.404 559.899L637.418 559.899L635.974 559.852L635.989 559.853L634.55 559.788L634.564 559.789L633.13 559.706L633.144 559.707L631.714 559.605L631.729 559.606L630.304 559.487L630.318 559.488L628.899 559.351L628.913 559.353L627.499 559.197L627.513 559.199L626.104 559.026L626.118 559.028L624.715 558.838L624.729 558.84L623.331 558.632L623.345 558.634L621.952 558.409L621.967 558.411L620.58 558.168L620.594 558.171L619.213 557.911L619.227 557.914L617.852 557.637L617.866 557.64L616.497 557.346L616.511 557.349L615.148 557.039L615.162 557.042L613.806 556.715L613.82 556.718L612.47 556.374L612.483 556.378L611.14 556.018L611.154 556.022L609.817 555.645L609.83 555.649L608.5 555.256L608.514 555.26L607.19 554.851L607.204 554.855L605.887 554.43L605.901 554.434L604.591 553.993L604.605 553.998L603.303 553.541L603.316 553.546L602.021 553.073L602.034 553.078L600.747 552.59L600.76 552.595L599.48 552.091L599.493 552.096L598.22 551.577L598.233 551.583L596.969 551.048L596.981 551.054L595.725 550.504L595.737 550.51L594.489 549.946L594.501 549.951L593.26 549.372L593.273 549.378L592.04 548.784L592.053 548.79L590.828 548.181L590.841 548.187L589.625 547.564L589.637 547.57L588.43 546.932L588.442 546.939L587.243 546.287L587.255 546.293L586.065 545.627L586.077 545.634L584.895 544.953L584.907 544.96L583.735 544.265L583.747 544.272L582.583 543.564L582.595 543.571L581.441 542.849L581.452 542.856L580.307 542.12L580.319 542.127L579.183 541.378L579.195 541.385L578.069 540.622L578.08 540.63L576.964 539.854L576.975 539.862L575.868 539.072L575.879 539.08L574.782 538.277L574.793 538.285L573.706 537.469L573.717 537.478L572.64 536.649L572.651 536.657L571.584 535.816L571.594 535.824L570.538 534.97L570.548 534.979L569.502 534.112L569.512 534.121L568.477 533.242L568.487 533.25L567.462 532.359L567.472 532.368L566.458 531.464L566.468 531.473L565.464 530.557L565.474 530.567L564.482 529.639L564.491 529.648L563.51 528.708L563.519 528.718L562.549 527.766L562.559 527.776L561.599 526.813L561.609 526.822L560.661 525.848L560.67 525.857L559.734 524.871L559.743 524.881L558.818 523.883L558.828 523.893L557.914 522.885L557.923 522.895L557.022 521.875L557.031 521.885L556.142 520.854L556.15 520.865L555.273 519.823L555.282 519.833L554.417 518.781L554.425 518.791L553.572 517.728L553.581 517.739L552.74 516.665L552.748 516.676L551.92 515.592L551.928 515.602L551.113 514.508L551.121 514.519L550.318 513.414L550.326 513.425L549.536 512.311L549.543 512.322L548.766 511.197L548.774 511.208L548.01 510.074L548.017 510.085L547.266 508.941L547.274 508.952L546.536 507.798L546.543 507.81L545.819 506.646L545.826 506.658L545.115 505.485L545.122 505.496L544.425 504.314L544.432 504.326L543.748 503.135L543.755 503.146L543.085 501.946L543.091 501.958L542.436 500.749L542.442 500.76L541.8 499.542L541.806 499.554L541.179 498.327L541.185 498.339L540.571 497.104L540.577 497.116L539.978 495.872L539.984 495.884L539.399 494.631L539.405 494.644L538.835 493.383L538.84 493.395L538.285 492.126L538.29 492.139L537.749 490.862L537.755 490.874L537.229 489.589L537.234 489.602L536.723 488.309L536.728 488.322L536.232 487.021L536.237 487.034L535.757 485.726L535.761 485.739L535.296 484.423L535.301 484.436L534.851 483.113L534.856 483.126L534.422 481.795L534.426 481.808L534.007 480.471L534.011 480.484L533.609 479.139L533.613 479.152L533.226 477.801L533.23 477.814L532.859 476.455L532.862 476.469L532.508 475.103L532.511 475.117L532.173 473.745L532.176 473.758L531.854 472.38L531.857 472.394L531.551 471.009L531.554 471.022L531.265 469.631L531.268 469.645L530.996 468.248L530.998 468.261L530.743 466.858L530.745 466.872L530.506 465.463L530.508 465.476L530.287 464.061L530.289 464.075L530.084 462.654L530.086 462.668L529.899 461.242L529.9 461.256L529.73 459.824L529.732 459.838L529.579 458.4L529.581 458.414L529.445 456.972L529.447 456.986L529.329 455.538L529.33 455.552L529.231 454.099L529.232 454.113L529.15 452.656L529.15 452.67L529.087 451.207L529.087 451.221L529.041 449.754L529.042 449.768L529.014 448.296L529.014 448.31L529.005 446.834M526.764 448.331L526.792 449.817L526.838 451.298L526.903 452.775L526.985 454.246L527.086 455.713L527.205 457.175L527.341 458.631L527.495 460.082L527.667 461.528L527.856 462.968L528.063 464.403L528.287 465.832L528.528 467.254L528.786 468.671L529.061 470.082L529.353 471.487L529.661 472.885L529.987 474.277L530.328 475.662L530.686 477.041L531.061 478.413L531.451 479.778L531.858 481.136L532.28 482.486L532.719 483.83L533.173 485.166L533.642 486.495L534.128 487.816L534.628 489.129L535.144 490.435L535.675 491.733L536.221 493.022L536.782 494.304L537.357 495.577L537.948 496.842L538.553 498.098L539.172 499.346L539.806 500.585L540.454 501.815L541.117 503.036L541.793 504.249L542.483 505.452L543.188 506.645L543.905 507.83L544.637 509.004L545.382 510.17L546.14 511.325L546.911 512.471L547.696 513.606L548.494 514.732L549.305 515.847L550.128 516.952L550.964 518.047L551.813 519.131L552.674 520.205L553.548 521.267L554.434 522.319L555.332 523.36L556.242 524.39L557.164 525.408L558.098 526.415L559.043 527.411L560 528.396L560.969 529.368L561.949 530.329L562.94 531.278L563.943 532.215L564.956 533.14L565.98 534.052L567.016 534.953L568.062 535.84L569.118 536.716L570.185 537.578L571.262 538.428L572.35 539.265L573.448 540.089L574.556 540.9L575.673 541.697L576.801 542.481L577.938 543.252L579.085 544.009L580.241 544.752L581.407 545.482L582.582 546.198L583.766 546.899L584.959 547.587L586.162 548.26L587.372 548.919L588.592 549.563L589.82 550.193L591.057 550.808L592.302 551.408L593.556 551.993L594.817 552.563L596.087 553.118L597.364 553.658L598.649 554.182L599.942 554.691L601.243 555.184L602.551 555.662L603.866 556.123L605.189 556.569L606.519 556.998L607.856 557.412L609.2 557.809L610.55 558.189L611.907 558.553L613.271 558.9L614.641 559.231L616.018 559.545L617.401 559.842L618.79 560.121L620.185 560.384L621.586 560.629L622.993 560.856L624.405 561.066L625.823 561.259L627.246 561.433L628.675 561.59L630.109 561.729L631.548 561.849L632.992 561.952L634.441 562.036L635.895 562.101L637.353 562.148L638.816 562.176L640.283 562.186L641.75 562.176L643.213 562.148L644.672 562.101L646.125 562.036L647.574 561.952L649.018 561.849L650.457 561.729L651.891 561.59L653.32 561.433L654.743 561.259L656.161 561.066L657.574 560.856L658.98 560.629L660.381 560.384L661.776 560.121L663.165 559.842L664.548 559.545L665.925 559.231L667.295 558.9L668.659 558.553L670.016 558.189L671.367 557.809L672.711 557.412L674.047 556.998L675.377 556.569L676.7 556.123L678.015 555.662L679.323 555.184L680.624 554.691L681.917 554.182L683.202 553.658L684.48 553.118L685.749 552.563L687.011 551.993L688.264 551.408L689.509 550.808L690.746 550.193L691.974 549.563L693.194 548.919L694.405 548.26L695.607 547.587L696.8 546.899L697.984 546.198L699.159 545.482L700.325 544.752L701.481 544.009L702.628 543.252L703.765 542.481L704.893 541.697L706.011 540.9L707.119 540.089L708.216 539.265L709.304 538.428L710.381 537.578L711.448 536.716L712.505 535.84L713.551 534.953L714.586 534.052L715.61 533.14L716.624 532.215L717.626 531.278L718.617 530.329L719.597 529.368L720.566 528.396L721.523 527.411L722.469 526.415L723.402 525.408L724.324 524.39L725.234 523.36L726.133 522.319L727.018 521.267L727.892 520.205L728.753 519.131L729.602 518.047L730.438 516.952L731.262 515.847L732.072 514.732L732.87 513.606L733.655 512.471L734.426 511.325L735.185 510.17L735.929 509.004L736.661 507.83L737.379 506.645L738.083 505.452L738.773 504.249L739.449 503.036L740.112 501.815L740.76 500.585L741.394 499.346L742.013 498.098L742.618 496.842L743.209 495.577L743.785 494.304L744.346 493.022L744.892 491.733L745.422 490.435L745.938 489.129L746.439 487.816L746.924 486.495L747.394 485.166L747.848 483.83L748.286 482.486L748.708 481.136L749.115 479.778L749.505 478.413L749.88 477.041L750.238 475.662L750.58 474.277L750.905 472.885L751.213 471.487L751.505 470.082L751.78 468.671L752.039 467.254L752.28 465.832L752.503 464.403L752.71 462.968L752.899 461.528L753.071 460.082L753.225 458.631L753.362 457.175L753.48 455.713L753.581 454.246L753.663 452.775L753.728 451.298L753.774 449.817L753.802 448.331L753.811 446.841L753.802 445.351L753.774 443.865L753.728 442.384L753.663 440.907L753.581 439.436L753.48 437.969L753.362 436.507L753.225 435.051L753.071 433.6L752.899 432.154L752.71 430.714L752.503 429.279L752.28 427.85L752.039 426.427L751.78 425.01L751.505 423.6L751.213 422.195L750.905 420.797L750.58 419.405L750.238 418.02L749.88 416.641L749.505 415.269L749.115 413.904L748.708 412.546L748.286 411.195L747.848 409.852L747.394 408.516L746.924 407.187L746.439 405.866L745.938 404.552L745.422 403.247L744.892 401.949L744.346 400.66L743.785 399.378L743.209 398.105L742.618 396.84L742.013 395.584L741.394 394.336L740.76 393.097L740.112 391.867L739.449 390.645L738.773 389.433L738.083 388.23L737.379 387.037L736.661 385.852L735.929 384.677L735.185 383.512L734.426 382.357L733.655 381.211L732.87 380.076L732.072 378.95L731.262 377.835L730.438 376.73L729.602 375.635L728.753 374.551L727.892 373.477L727.018 372.415L726.133 371.363L725.234 370.322L724.324 369.292L723.402 368.274L722.469 367.266L721.523 366.271L720.566 365.286L719.597 364.314L718.617 363.353L717.626 362.404L716.624 361.467L715.61 360.542L714.586 359.63L713.551 358.729L712.505 357.841L711.448 356.966L710.381 356.104L709.304 355.254L708.216 354.417L707.119 353.593L706.011 352.782L704.893 351.985L703.765 351.201L702.628 350.43L701.481 349.673L700.325 348.93L699.159 348.2L697.984 347.484L696.8 346.783L695.607 346.095L694.405 345.422L693.194 344.763L691.974 344.119L690.746 343.489L689.509 342.874L688.264 342.274L687.011 341.689L685.749 341.119L684.48 340.564L683.202 340.024L681.917 339.5L680.624 338.991L679.323 338.498L678.015 338.02L676.7 337.559L675.377 337.113L674.047 336.684L672.711 336.27L671.367 335.873L670.016 335.493L668.659 335.129L667.295 334.781L665.925 334.451L664.548 334.137L663.165 333.84L661.776 333.561L660.381 333.298L658.98 333.053L657.574 332.826L656.161 332.616L654.743 332.423L653.32 332.249L651.891 332.092L650.457 331.953L649.018 331.833L647.574 331.73L646.125 331.646L644.672 331.581L643.213 331.534L641.75 331.506L640.283 331.496L638.816 331.506L637.353 331.534L635.895 331.581L634.441 331.646L632.992 331.73L631.548 331.833L630.109 331.953L628.675 332.092L627.246 332.249L625.823 332.423L624.405 332.616L622.993 332.826L621.586 333.053L620.185 333.298L618.79 333.561L617.401 333.84L616.018 334.137L614.641 334.451L613.271 334.781L611.907 335.129L610.55 335.493L609.2 335.873L607.856 336.27L606.519 336.684L605.189 337.113L603.866 337.559L602.551 338.02L601.243 338.498L599.942 338.991L598.649 339.5L597.364 340.024L596.087 340.564L594.817 341.119L593.556 341.689L592.302 342.274L591.057 342.874L589.82 343.489L588.592 344.119L587.372 344.763L586.162 345.422L584.959 346.095L583.766 346.783L582.582 347.484L581.407 348.2L580.241 348.93L579.085 349.673L577.938 350.43L576.801 351.201L575.673 351.985L574.556 352.782L573.448 353.593L572.35 354.417L571.262 355.254L570.185 356.104L569.118 356.966L568.062 357.841L567.016 358.729L565.98 359.63L564.956 360.542L563.943 361.467L562.94 362.404L561.949 363.353L560.969 364.314L560 365.286L559.043 366.271L558.098 367.266L557.164 368.274L556.242 369.292L555.332 370.322L554.434 371.363L553.548 372.415L552.674 373.477L551.813 374.551L550.964 375.635L550.128 376.73L549.305 377.835L548.494 378.95L547.696 380.076L546.911 381.211L546.14 382.357L545.382 383.512L544.637 384.677L543.905 385.852L543.188 387.037L542.483 388.23L541.793 389.433L541.117 390.645L540.454 391.867L539.806 393.097L539.172 394.336L538.553 395.584L537.948 396.84L537.357 398.105L536.782 399.378L536.221 400.66L535.675 401.949L535.144 403.247L534.628 404.552L534.128 405.866L533.642 407.187L533.173 408.516L532.719 409.852L532.28 411.195L531.858 412.546L531.451 413.904L531.061 415.269L530.686 416.641L530.328 418.02L529.987 419.405L529.661 420.797L529.353 422.195L529.061 423.6L528.786 425.01L528.528 426.427L528.287 427.85L528.063 429.279L527.856 430.714L527.667 432.154L527.495 433.6L527.341 435.051L527.205 436.507L527.086 437.969L526.985 439.436L526.903 440.907L526.838 442.384L526.792 443.865L526.764 445.351L526.755 446.841L526.764 448.331z" stroke="none" fill="#F5F5F5" fill-rule="nonzero" /><path id="441" transform="matrix(1 0 0 -1 0 595)" d="M485.125 446.863L485.125 446.877L485.138 444.825L485.138 444.839L485.176 442.793L485.175 442.807L485.239 440.768L485.238 440.782L485.327 438.749L485.327 438.763L485.44 436.736L485.439 436.75L485.578 434.731L485.577 434.745L485.74 432.732L485.739 432.746L485.927 430.741L485.925 430.755L486.138 428.757L486.136 428.771L486.372 426.78L486.371 426.794L486.631 424.812L486.629 424.825L486.914 422.85L486.912 422.864L487.22 420.897L487.218 420.911L487.55 418.952L487.547 418.965L487.903 417.015L487.9 417.028L488.279 415.086L488.276 415.1L488.678 413.166L488.675 413.18L489.1 411.255L489.097 411.268L489.544 409.352L489.541 409.365L490.012 407.458L490.008 407.472L490.501 405.574L490.498 405.587L491.013 403.699L491.009 403.712L491.547 401.833L491.543 401.846L492.103 399.977L492.099 399.99L492.68 398.131L492.676 398.144L493.279 396.294L493.275 396.307L493.9 394.468L493.896 394.481L494.542 392.652L494.537 392.665L495.205 390.846L495.201 390.859L495.89 389.051L495.885 389.063L496.595 387.266L496.59 387.279L497.32 385.492L497.315 385.505L498.067 383.73L498.061 383.742L498.834 381.978L498.828 381.99L499.621 380.238L499.615 380.25L500.428 378.509L500.422 378.521L501.255 376.792L501.249 376.804L502.102 375.086L502.096 375.098L502.968 373.393L502.962 373.405L503.854 371.711L503.848 371.723L504.76 370.042L504.753 370.054L505.684 368.385L505.678 368.397L506.628 366.741L506.621 366.752L507.59 365.109L507.583 365.121L508.572 363.49L508.565 363.502L509.571 361.885L509.564 361.896L510.59 360.292L510.582 360.303L511.626 358.713L511.619 358.724L512.681 357.147L512.673 357.158L513.754 355.595L513.746 355.606L514.844 354.056L514.836 354.067L515.952 352.532L515.944 352.542L517.078 351.021L517.07 351.032L518.221 349.525L518.213 349.536L519.381 348.043L519.373 348.054L520.558 346.576L520.55 346.586L521.752 345.123L521.744 345.134L522.963 343.686L522.955 343.696L524.191 342.263L524.182 342.273L525.435 340.856L525.426 340.866L526.695 339.464L526.686 339.473L527.972 338.087L527.962 338.097L529.264 336.726L529.255 336.736L530.572 335.381L530.563 335.39L531.896 334.051L531.887 334.061L533.236 332.738L533.226 332.748L534.59 331.441L534.581 331.451L535.961 330.161L535.951 330.17L537.346 328.897L537.336 328.906L538.746 327.65L538.736 327.659L540.161 326.419L540.15 326.428L541.59 325.206L541.58 325.215L543.034 324.01L543.023 324.019L544.492 322.831L544.482 322.84L545.964 321.67L545.954 321.678L547.451 320.526L547.44 320.535L548.951 319.401L548.94 319.409L550.465 318.293L550.454 318.301L551.992 317.203L551.981 317.211L553.533 316.132L553.522 316.139L555.087 315.079L555.076 315.086L556.654 314.044L556.643 314.052L558.235 313.028L558.223 313.036L559.827 312.032L559.816 312.039L561.433 311.054L561.421 311.061L563.051 310.095L563.039 310.102L564.681 309.156L564.669 309.163L566.324 308.236L566.312 308.243L567.978 307.336L567.966 307.343L569.645 306.456L569.632 306.462L571.323 305.596L571.31 305.602L573.012 304.756L573 304.762L574.713 303.936L574.701 303.942L576.426 303.136L576.413 303.142L578.149 302.358L578.136 302.363L579.884 301.599L579.871 301.605L581.629 300.862L581.616 300.868L583.385 300.146L583.372 300.151L585.151 299.451L585.138 299.456L586.927 298.778L586.914 298.782L588.714 298.126L588.701 298.13L590.511 297.495L590.498 297.5L592.318 296.887L592.305 296.891L594.135 296.3L594.121 296.304L595.961 295.735L595.947 295.74L597.796 295.193L597.783 295.197L599.641 294.674L599.627 294.677L601.495 294.176L601.481 294.18L603.358 293.702L603.344 293.705L605.23 293.25L605.216 293.254L607.11 292.822L607.096 292.825L608.999 292.417L608.985 292.42L610.897 292.035L610.883 292.038L612.802 291.677L612.788 291.679L614.716 291.342L614.702 291.344L616.638 291.031L616.624 291.033L618.567 290.744L618.553 290.746L620.504 290.481L620.49 290.483L622.449 290.243L622.434 290.245L624.401 290.029L624.386 290.03L626.36 289.84L626.345 289.841L628.326 289.675L628.311 289.676L630.299 289.535L630.284 289.536L632.278 289.421L632.264 289.421L634.265 289.331L634.25 289.332L636.257 289.267L636.243 289.268L638.256 289.229L638.242 289.229L640.261 289.216L640.247 289.216L642.266 289.229L642.252 289.229L644.265 289.268L644.251 289.267L646.258 289.332L646.244 289.331L648.244 289.421L648.23 289.421L650.224 289.536L650.209 289.535L652.197 289.676L652.182 289.675L654.163 289.841L654.148 289.84L656.122 290.03L656.107 290.029L658.074 290.245L658.059 290.243L660.018 290.483L660.004 290.481L661.955 290.746L661.941 290.744L663.884 291.033L663.87 291.031L665.806 291.344L665.792 291.342L667.72 291.679L667.706 291.677L669.625 292.038L669.611 292.035L671.523 292.42L671.509 292.417L673.412 292.825L673.398 292.822L675.292 293.254L675.278 293.25L677.164 293.705L677.15 293.702L679.027 294.18L679.013 294.176L680.881 294.677L680.867 294.674L682.725 295.197L682.712 295.193L684.561 295.74L684.547 295.735L686.387 296.304L686.373 296.3L688.203 296.891L688.19 296.887L690.01 297.5L689.997 297.495L691.807 298.13L691.794 298.126L693.594 298.782L693.581 298.778L695.37 299.456L695.357 299.451L697.136 300.151L697.124 300.146L698.892 300.868L698.879 300.862L700.637 301.605L700.625 301.599L702.372 302.363L702.359 302.358L704.095 303.142L704.082 303.136L705.807 303.942L705.795 303.936L707.508 304.762L707.496 304.756L709.198 305.602L709.185 305.596L710.876 306.462L710.863 306.456L712.542 307.343L712.53 307.336L714.196 308.243L714.184 308.236L715.839 309.163L715.827 309.156L717.469 310.102L717.457 310.095L719.087 311.061L719.075 311.054L720.692 312.039L720.681 312.032L722.285 313.036L722.273 313.028L723.865 314.052L723.854 314.044L725.432 315.086L725.421 315.079L726.986 316.139L726.975 316.132L728.527 317.211L728.516 317.203L730.054 318.301L730.043 318.293L731.568 319.409L731.557 319.401L733.068 320.535L733.057 320.526L734.554 321.678L734.544 321.67L736.026 322.84L736.016 322.831L737.485 324.019L737.474 324.01L738.928 325.215L738.918 325.206L740.358 326.428L740.347 326.419L741.772 327.659L741.762 327.65L743.172 328.906L743.162 328.897L744.557 330.17L744.547 330.161L745.927 331.451L745.918 331.441L747.282 332.748L747.272 332.738L748.621 334.061L748.612 334.051L749.945 335.39L749.936 335.381L751.253 336.736L751.244 336.726L752.546 338.097L752.536 338.087L753.822 339.473L753.813 339.464L755.082 340.866L755.073 340.856L756.326 342.273L756.317 342.263L757.553 343.696L757.545 343.686L758.764 345.134L758.756 345.123L759.958 346.586L759.95 346.576L761.135 348.054L761.127 348.043L762.295 349.536L762.287 349.525L763.438 351.032L763.43 351.021L764.564 352.542L764.556 352.532L765.672 354.067L765.664 354.056L766.762 355.606L766.755 355.595L767.835 357.158L767.827 357.147L768.889 358.724L768.882 358.713L769.926 360.303L769.918 360.292L770.944 361.896L770.937 361.885L771.943 363.502L771.936 363.49L772.925 365.121L772.918 365.109L773.887 366.752L773.88 366.741L774.83 368.397L774.824 368.385L775.755 370.054L775.748 370.042L776.66 371.723L776.654 371.711L777.546 373.405L777.54 373.393L778.412 375.098L778.406 375.086L779.259 376.804L779.253 376.792L780.086 378.521L780.08 378.509L780.893 380.25L780.887 380.238L781.68 381.99L781.674 381.978L782.447 383.742L782.441 383.73L783.193 385.505L783.188 385.492L783.919 387.279L783.913 387.266L784.623 389.063L784.619 389.051L785.307 390.859L785.303 390.846L785.971 392.665L785.966 392.652L786.612 394.481L786.608 394.468L787.233 396.307L787.229 396.294L787.832 398.144L787.828 398.131L788.409 399.99L788.405 399.977L788.965 401.846L788.961 401.833L789.499 403.712L789.495 403.699L790.01 405.587L790.007 405.574L790.5 407.472L790.497 407.458L790.967 409.365L790.964 409.352L791.411 411.268L791.408 411.255L791.833 413.18L791.83 413.166L792.232 415.1L792.229 415.086L792.608 417.028L792.605 417.015L792.961 418.965L792.958 418.952L793.29 420.911L793.288 420.897L793.596 422.864L793.594 422.85L793.879 424.825L793.877 424.812L794.137 426.794L794.136 426.78L794.372 428.771L794.37 428.757L794.583 430.755L794.581 430.741L794.769 432.746L794.768 432.732L794.931 434.745L794.93 434.731L795.069 436.75L795.068 436.736L795.182 438.763L795.181 438.749L795.27 440.782L795.269 440.768L795.333 442.807L795.332 442.793L795.37 444.839L795.37 444.825L795.383 446.877L795.383 446.863L795.37 448.916L795.37 448.902L795.332 450.948L795.333 450.934L795.269 452.973L795.27 452.959L795.181 454.992L795.182 454.978L795.068 457.005L795.069 456.991L794.93 459.01L794.931 458.996L794.768 461.009L794.769 460.995L794.581 463L794.583 462.986L794.37 464.984L794.372 464.97L794.136 466.96L794.137 466.947L793.877 468.929L793.879 468.916L793.594 470.891L793.596 470.877L793.288 472.844L793.29 472.83L792.958 474.789L792.961 474.775L792.605 476.726L792.608 476.713L792.229 478.655L792.232 478.641L791.83 480.575L791.833 480.561L791.408 482.486L791.411 482.473L790.964 484.389L790.967 484.375L790.497 486.283L790.5 486.269L790.007 488.167L790.01 488.154L789.495 490.042L789.499 490.029L788.961 491.908L788.965 491.895L788.405 493.764L788.409 493.751L787.828 495.61L787.832 495.597L787.229 497.447L787.233 497.434L786.608 499.273L786.612 499.26L785.966 501.089L785.971 501.076L785.303 502.895L785.307 502.882L784.619 504.69L784.623 504.678L783.913 506.475L783.919 506.462L783.188 508.249L783.193 508.236L782.441 510.011L782.447 509.999L781.674 511.763L781.68 511.751L780.887 513.503L780.893 513.491L780.08 515.232L780.086 515.22L779.253 516.949L779.259 516.937L778.406 518.655L778.412 518.643L777.54 520.348L777.546 520.336L776.654 522.03L776.66 522.018L775.748 523.699L775.755 523.687L774.824 525.356L774.83 525.344L773.88 527L773.887 526.989L772.918 528.632L772.925 528.62L771.936 530.251L771.943 530.239L770.937 531.856L770.944 531.845L769.918 533.449L769.926 533.438L768.882 535.028L768.889 535.017L767.827 536.594L767.835 536.583L766.755 538.146L766.762 538.135L765.664 539.685L765.672 539.674L764.556 541.209L764.564 541.199L763.43 542.72L763.438 542.709L762.287 544.216L762.295 544.205L761.127 545.698L761.135 545.687L759.95 547.165L759.958 547.155L758.756 548.617L758.764 548.607L757.545 550.055L757.553 550.045L756.317 551.478L756.326 551.468L755.073 552.885L755.082 552.875L753.813 554.277L753.822 554.268L752.536 555.654L752.546 555.644L751.244 557.015L751.253 557.005L749.936 558.36L749.945 558.351L748.612 559.69L748.621 559.68L747.272 561.003L747.282 560.993L745.918 562.3L745.927 562.29L744.547 563.58L744.557 563.571L743.162 564.844L743.172 564.835L741.762 566.091L741.772 566.082L740.347 567.322L740.358 567.313L738.918 568.535L738.928 568.526L737.474 569.731L737.485 569.722L736.016 570.91L736.026 570.901L734.544 572.071L734.554 572.063L733.057 573.215L733.068 573.206L731.557 574.34L731.568 574.332L730.043 575.448L730.054 575.44L728.516 576.538L728.527 576.53L726.975 577.609L726.986 577.602L725.421 578.662L725.432 578.655L723.854 579.697L723.865 579.689L722.273 580.713L722.285 580.705L720.681 581.709L720.692 581.702L719.075 582.687L719.087 582.68L717.457 583.646L717.469 583.639L715.827 584.585L715.839 584.578L714.184 585.505L714.196 585.498L712.53 586.405L712.542 586.398L710.863 587.285L710.876 587.279L709.185 588.145L709.198 588.139L707.496 588.985L707.508 588.979L705.795 589.805L705.807 589.799L704.082 590.605L704.095 590.599L702.359 591.383L702.372 591.378L700.625 592.142L700.637 592.136L698.879 592.879L698.892 592.873L697.124 593.595L697.136 593.59L695.357 594.29L695.37 594.285L693.581 594.963L693.594 594.958L691.794 595.615L691.807 595.611L689.997 596.246L690.01 596.241L688.19 596.854L688.203 596.85L686.373 597.441L686.387 597.437L684.547 598.006L684.561 598.001L682.712 598.548L682.725 598.544L680.867 599.067L680.881 599.064L679.013 599.565L679.027 599.561L677.15 600.039L677.164 600.036L675.278 600.491L675.292 600.487L673.398 600.919L673.412 600.916L671.509 601.324L671.523 601.321L669.611 601.706L669.625 601.703L667.706 602.064L667.72 602.062L665.792 602.399L665.806 602.397L663.87 602.71L663.884 602.708L661.941 602.997L661.955 602.995L660.004 603.26L660.018 603.258L658.059 603.498L658.074 603.496L656.107 603.712L656.122 603.71L654.148 603.901L654.163 603.9L652.182 604.066L652.197 604.065L650.209 604.206L650.224 604.205L648.23 604.32L648.244 604.32L646.244 604.41L646.258 604.409L644.251 604.474L644.265 604.473L642.252 604.512L642.266 604.512L640.247 604.525L640.261 604.525L638.242 604.512L638.256 604.512L636.243 604.473L636.257 604.474L634.25 604.409L634.265 604.41L632.264 604.32L632.278 604.32L630.284 604.205L630.299 604.206L628.311 604.065L628.326 604.066L626.345 603.9L626.36 603.901L624.386 603.71L624.401 603.712L622.434 603.496L622.449 603.498L620.49 603.258L620.504 603.26L618.553 602.995L618.567 602.997L616.624 602.708L616.638 602.71L614.702 602.397L614.716 602.399L612.788 602.062L612.802 602.064L610.883 601.703L610.897 601.706L608.985 601.321L608.999 601.324L607.096 600.916L607.11 600.919L605.216 600.487L605.23 600.491L603.344 600.036L603.358 600.039L601.481 599.561L601.495 599.565L599.627 599.064L599.641 599.067L597.783 598.544L597.796 598.548L595.947 598.001L595.961 598.006L594.121 597.437L594.135 597.441L592.305 596.85L592.318 596.854L590.498 596.241L590.511 596.246L588.701 595.611L588.714 595.615L586.914 594.958L586.927 594.963L585.138 594.285L585.151 594.29L583.372 593.59L583.385 593.595L581.616 592.873L581.629 592.879L579.871 592.136L579.884 592.142L578.136 591.378L578.149 591.383L576.413 590.599L576.426 590.605L574.701 589.799L574.713 589.805L573 588.979L573.012 588.985L571.31 588.139L571.323 588.145L569.632 587.279L569.645 587.285L567.966 586.398L567.978 586.405L566.312 585.498L566.324 585.505L564.669 584.578L564.681 584.585L563.039 583.639L563.051 583.646L561.421 582.68L561.433 582.687L559.816 581.702L559.827 581.709L558.223 580.705L558.235 580.713L556.643 579.689L556.654 579.697L555.076 578.655L555.087 578.662L553.522 577.602L553.533 577.609L551.981 576.53L551.992 576.538L550.454 575.44L550.465 575.448L548.94 574.332L548.951 574.34L547.44 573.206L547.451 573.215L545.954 572.063L545.964 572.071L544.482 570.901L544.492 570.91L543.023 569.722L543.034 569.731L541.58 568.526L541.59 568.535L540.15 567.313L540.161 567.322L538.736 566.082L538.746 566.091L537.336 564.835L537.346 564.844L535.951 563.571L535.961 563.58L534.581 562.29L534.59 562.3L533.226 560.993L533.236 561.003L531.887 559.68L531.896 559.69L530.563 558.351L530.572 558.36L529.255 557.005L529.264 557.015L527.962 555.644L527.972 555.654L526.686 554.268L526.695 554.277L525.426 552.875L525.435 552.885L524.182 551.468L524.191 551.478L522.955 550.045L522.963 550.055L521.744 548.607L521.752 548.617L520.55 547.155L520.558 547.165L519.373 545.687L519.381 545.698L518.213 544.205L518.221 544.216L517.07 542.709L517.078 542.72L515.944 541.199L515.952 541.209L514.836 539.674L514.844 539.685L513.746 538.135L513.754 538.146L512.673 536.583L512.681 536.594L511.619 535.017L511.626 535.028L510.582 533.438L510.59 533.449L509.564 531.845L509.571 531.856L508.565 530.239L508.572 530.251L507.583 528.62L507.59 528.632L506.621 526.989L506.628 527L505.678 525.344L505.684 525.356L504.753 523.687L504.76 523.699L503.848 522.018L503.854 522.03L502.962 520.336L502.968 520.348L502.096 518.643L502.102 518.655L501.249 516.937L501.255 516.949L500.422 515.22L500.428 515.232L499.615 513.491L499.621 513.503L498.828 511.751L498.834 511.763L498.061 509.999L498.067 510.011L497.315 508.236L497.32 508.249L496.59 506.462L496.595 506.475L495.885 504.678L495.89 504.69L495.201 502.882L495.205 502.895L494.537 501.076L494.542 501.089L493.896 499.26L493.9 499.273L493.275 497.434L493.279 497.447L492.676 495.597L492.68 495.61L492.099 493.751L492.103 493.764L491.543 491.895L491.547 491.908L491.009 490.029L491.013 490.042L490.498 488.154L490.501 488.167L490.008 486.269L490.012 486.283L489.541 484.375L489.544 484.389L489.097 482.473L489.1 482.486L488.675 480.561L488.678 480.575L488.276 478.641L488.279 478.655L487.9 476.713L487.903 476.726L487.547 474.775L487.55 474.789L487.218 472.83L487.22 472.844L486.912 470.877L486.914 470.891L486.629 468.916L486.631 468.929L486.371 466.947L486.372 466.96L486.136 464.97L486.138 464.984L485.925 462.986L485.927 463L485.739 460.995L485.74 461.009L485.577 458.996L485.578 459.01L485.439 456.991L485.44 457.005L485.327 454.978L485.327 454.992L485.238 452.959L485.239 452.973L485.175 450.934L485.176 450.948L485.138 448.902L485.138 448.916L485.125 446.863M482.888 448.937L482.926 450.997L482.99 453.05L483.08 455.097L483.194 457.138L483.334 459.171L483.498 461.197L483.687 463.217L483.901 465.228L484.139 467.233L484.401 469.229L484.688 471.218L484.998 473.199L485.332 475.172L485.69 477.136L486.072 479.092L486.476 481.039L486.904 482.978L487.355 484.908L487.829 486.828L488.325 488.739L488.844 490.641L489.385 492.533L489.949 494.416L490.535 496.289L491.142 498.151L491.772 500.004L492.423 501.846L493.096 503.677L493.789 505.498L494.504 507.308L495.241 509.107L495.997 510.895L496.775 512.671L497.573 514.436L498.392 516.19L499.231 517.932L500.089 519.661L500.968 521.379L501.867 523.085L502.785 524.778L503.723 526.458L504.68 528.126L505.656 529.781L506.651 531.423L507.665 533.051L508.698 534.667L509.749 536.268L510.818 537.857L511.906 539.431L513.012 540.991L514.136 542.538L515.278 544.07L516.437 545.587L517.614 547.09L518.807 548.578L520.019 550.052L521.247 551.51L522.492 552.953L523.753 554.38L525.032 555.792L526.326 557.189L527.637 558.569L528.964 559.934L530.307 561.282L531.665 562.614L533.039 563.93L534.429 565.228L535.834 566.511L537.254 567.776L538.689 569.024L540.139 570.255L541.604 571.468L543.083 572.664L544.576 573.842L546.084 575.002L547.606 576.144L549.142 577.268L550.691 578.373L552.254 579.46L553.831 580.529L555.421 581.578L557.024 582.609L558.64 583.62L560.268 584.612L561.91 585.585L563.564 586.538L565.23 587.471L566.909 588.384L568.6 589.278L570.302 590.15L572.017 591.003L573.743 591.835L575.48 592.646L577.229 593.437L578.989 594.206L580.76 594.954L582.541 595.681L584.333 596.386L586.136 597.07L587.95 597.731L589.773 598.371L591.606 598.989L593.45 599.584L595.303 600.157L597.166 600.708L599.038 601.235L600.919 601.74L602.81 602.221L604.709 602.679L606.617 603.114L608.534 603.526L610.46 603.913L612.394 604.277L614.336 604.617L616.285 604.932L618.243 605.223L620.209 605.49L622.182 605.732L624.162 605.949L626.15 606.142L628.145 606.309L630.147 606.451L632.155 606.567L634.17 606.658L636.192 606.723L638.22 606.762L640.254 606.775L642.288 606.762L644.316 606.723L646.338 606.658L648.353 606.567L650.361 606.451L652.363 606.309L654.358 606.142L656.346 605.949L658.326 605.732L660.299 605.49L662.265 605.223L664.223 604.932L666.173 604.617L668.115 604.277L670.048 603.913L671.974 603.526L673.891 603.114L675.799 602.679L677.698 602.221L679.589 601.74L681.47 601.235L683.342 600.708L685.205 600.157L687.058 599.584L688.902 598.989L690.735 598.371L692.558 597.731L694.372 597.07L696.175 596.386L697.967 595.681L699.749 594.954L701.519 594.206L703.279 593.437L705.028 592.646L706.765 591.835L708.491 591.003L710.206 590.15L711.908 589.278L713.599 588.384L715.278 587.471L716.944 586.538L718.598 585.585L720.24 584.612L721.868 583.62L723.484 582.609L725.087 581.578L726.677 580.529L728.254 579.46L729.817 578.373L731.366 577.268L732.902 576.144L734.424 575.002L735.932 573.842L737.425 572.664L738.904 571.468L740.369 570.255L741.819 569.024L743.254 567.776L744.674 566.511L746.079 565.228L747.469 563.93L748.843 562.614L750.201 561.282L751.544 559.934L752.871 558.569L754.182 557.189L755.476 555.792L756.755 554.38L758.016 552.953L759.261 551.51L760.489 550.052L761.701 548.578L762.895 547.09L764.071 545.587L765.23 544.07L766.372 542.538L767.496 540.991L768.602 539.431L769.69 537.857L770.759 536.268L771.81 534.667L772.843 533.051L773.857 531.423L774.852 529.781L775.828 528.126L776.785 526.458L777.723 524.778L778.641 523.085L779.54 521.379L780.419 519.661L781.277 517.932L782.116 516.19L782.935 514.436L783.733 512.671L784.511 510.895L785.267 509.107L786.004 507.308L786.719 505.498L787.412 503.677L788.085 501.846L788.736 500.004L789.366 498.151L789.973 496.289L790.559 494.416L791.123 492.533L791.664 490.641L792.183 488.739L792.679 486.828L793.153 484.908L793.604 482.978L794.032 481.039L794.436 479.092L794.818 477.136L795.176 475.172L795.51 473.199L795.82 471.218L796.107 469.229L796.369 467.233L796.607 465.228L796.821 463.217L797.01 461.197L797.174 459.171L797.314 457.138L797.428 455.097L797.518 453.05L797.582 450.997L797.62 448.937L797.633 446.87L797.62 444.804L797.582 442.744L797.518 440.691L797.428 438.644L797.314 436.603L797.174 434.57L797.01 432.544L796.821 430.524L796.607 428.512L796.369 426.508L796.107 424.511L795.82 422.523L795.51 420.542L795.176 418.569L794.818 416.605L794.436 414.649L794.032 412.701L793.604 410.763L793.153 408.833L792.679 406.913L792.183 405.002L791.664 403.1L791.123 401.208L790.559 399.325L789.973 397.452L789.366 395.59L788.736 393.737L788.085 391.895L787.412 390.064L786.719 388.243L786.004 386.433L785.267 384.634L784.511 382.846L783.733 381.07L782.935 379.304L782.116 377.551L781.277 375.809L780.419 374.079L779.54 372.362L778.641 370.656L777.723 368.963L776.785 367.283L775.828 365.615L774.852 363.96L773.857 362.318L772.843 360.69L771.81 359.074L770.759 357.472L769.69 355.884L768.602 354.31L767.496 352.75L766.372 351.203L765.23 349.671L764.071 348.154L762.895 346.651L761.701 345.163L760.489 343.689L759.261 342.231L758.016 340.788L756.755 339.361L755.476 337.949L754.182 336.552L752.871 335.172L751.544 333.807L750.201 332.459L748.843 331.127L747.469 329.811L746.079 328.513L744.674 327.23L743.254 325.965L741.819 324.717L740.369 323.486L738.904 322.273L737.425 321.077L735.932 319.899L734.424 318.739L732.902 317.597L731.366 316.473L729.817 315.368L728.254 314.28L726.677 313.212L725.087 312.163L723.484 311.132L721.868 310.121L720.24 309.129L718.598 308.156L716.944 307.203L715.278 306.27L713.599 305.357L711.908 304.463L710.206 303.59L708.491 302.738L706.765 301.906L705.028 301.095L703.279 300.304L701.519 299.535L699.749 298.787L697.967 298.06L696.175 297.355L694.372 296.671L692.558 296.009L690.735 295.37L688.902 294.752L687.058 294.157L685.205 293.584L683.342 293.033L681.47 292.506L679.589 292.001L677.698 291.52L675.799 291.062L673.891 290.627L671.974 290.215L670.048 289.828L668.115 289.464L666.173 289.124L664.223 288.809L662.265 288.518L660.299 288.251L658.326 288.009L656.346 287.792L654.358 287.599L652.363 287.432L650.361 287.29L648.353 287.174L646.338 287.083L644.316 287.018L642.288 286.979L640.254 286.966L638.22 286.979L636.192 287.018L634.17 287.083L632.155 287.174L630.147 287.29L628.145 287.432L626.15 287.599L624.162 287.792L622.182 288.009L620.209 288.251L618.243 288.518L616.285 288.809L614.336 289.124L612.394 289.464L610.46 289.828L608.534 290.215L606.617 290.627L604.709 291.062L602.81 291.52L600.919 292.001L599.038 292.506L597.166 293.033L595.303 293.584L593.45 294.157L591.606 294.752L589.773 295.37L587.95 296.009L586.136 296.671L584.333 297.355L582.541 298.06L580.76 298.787L578.989 299.535L577.229 300.304L575.48 301.095L573.743 301.906L572.017 302.738L570.302 303.59L568.6 304.463L566.909 305.357L565.23 306.27L563.564 307.203L561.91 308.156L560.268 309.129L558.64 310.121L557.024 311.132L555.421 312.163L553.831 313.212L552.254 314.28L550.691 315.368L549.142 316.473L547.606 317.597L546.084 318.739L544.576 319.899L543.083 321.077L541.604 322.273L540.139 323.486L538.689 324.717L537.254 325.965L535.834 327.23L534.429 328.513L533.039 329.811L531.665 331.127L530.307 332.459L528.964 333.807L527.637 335.172L526.326 336.552L525.032 337.949L523.753 339.361L522.492 340.788L521.247 342.231L520.019 343.689L518.807 345.163L517.614 346.651L516.437 348.154L515.278 349.671L514.136 351.203L513.012 352.75L511.906 354.31L510.818 355.884L509.749 357.472L508.698 359.074L507.665 360.69L506.651 362.318L505.656 363.96L504.68 365.615L503.723 367.283L502.785 368.963L501.867 370.656L500.968 372.362L500.089 374.079L499.231 375.809L498.392 377.551L497.573 379.304L496.775 381.07L495.997 382.846L495.241 384.634L494.504 386.433L493.789 388.243L493.096 390.064L492.423 391.895L491.772 393.737L491.142 395.59L490.535 397.452L489.949 399.325L489.385 401.208L488.844 403.1L488.325 405.002L487.829 406.913L487.355 408.833L486.904 410.763L486.476 412.701L486.072 414.649L485.69 416.605L485.332 418.569L484.998 420.542L484.688 422.523L484.401 424.511L484.139 426.508L483.901 428.512L483.687 430.524L483.498 432.544L483.334 434.57L483.194 436.603L483.08 438.644L482.99 440.691L482.926 442.744L482.888 444.804L482.875 446.87L482.888 448.937z" stroke="none" fill="#F5F5F5" fill-rule="nonzero" /></g><g clip-path="url(#8)"><g clip-path="url(#9)"></g></g><g clip-path="url(#10)"><path id="446" transform="matrix(1 0 0 -1 0 595)" d="M64.428 81.16901C 59.279 83.23596 59.279 83.23596 59.279 83.23596C 59.279 81.68597 59.279 81.68597 59.279 81.68597C 59.561 81.341 59.702 80.91101 59.702 80.47998C 59.702 80.04901 59.561 79.61798 59.35 79.35999C 59.42 79.10199 59.561 78.84302 59.702 78.75696C 62.735 76.776 66.826 76.776 70.141 79.01599C 70.423 79.18799 70.564 79.53198 70.564 79.87701C 70.564 83.323 70.564 83.323 70.564 83.323C 65.345 81.16901 65.345 81.16901 65.345 81.16901C 64.781 80.91101 64.922 80.91101 64.428 81.16901zM73.386 86.68198C 65.275 90.12799 65.275 90.12799 65.275 90.12799C 64.781 90.29999 64.851 90.29999 64.358 90.12799C 56.176 86.68198 56.176 86.68198 56.176 86.68198C 55.612 86.50998 55.612 86.07898 56.176 85.90698C 58.08 85.04498 58.08 85.04498 58.08 85.04498C 57.234 84.01199 57.163 82.97797 57.163 81.77197C 56.811 81.59998 56.599 81.16901 56.599 80.73798C 56.599 80.30798 56.811 79.96301 57.093 79.79102C 56.952 78.49896 56.529 77.12 55.4 75.39801C 55.964 74.88098 56.246 74.70801 56.74 74.45001C 58.362 75.31097 58.151 77.63696 58.01 79.87701C 58.221 80.04901 58.362 80.39398 58.362 80.73798C 58.362 81.16901 58.221 81.51398 57.939 81.68597C 58.01 82.89197 58.221 83.92599 58.927 84.61499C 58.927 84.70099 58.997 84.70099 58.997 84.70099C 64.64 87.457 64.64 87.457 64.64 87.457C 64.851 87.543 65.063 87.457 65.133 87.19897C 65.204 86.94098 65.133 86.59598 64.922 86.50998C 60.196 84.18399 60.196 84.18399 60.196 84.18399C 64.428 82.461 64.428 82.461 64.428 82.461C 64.922 82.203 64.851 82.203 65.345 82.461C 73.456 85.82098 73.456 85.82098 73.456 85.82098C 73.95 86.07898 73.95 86.42398 73.386 86.68198z" stroke="none" fill="#FFFFFF" fill-rule="evenodd" /></g><g clip-path="url(#11)"><g clip-path="url(#12)"></g></g><g clip-path="url(#13)"><g transform="matrix(0.3265574 0 0 0.3277966 699.96 44.70001)"><g transform="matrix(1 0 0 1 0 0)"><image x="0" y="0" xlink:href="img_03.png" width="244" height="354" /></g></g><path id="509" transform="matrix(1 0 0 -1 0 595)" d="M48.441 320.6L48.462 320.6L48.462 320.6L49.788 320.6L49.788 320.6L49.808 320.6L49.808 320.6L49.827 320.601L49.827 320.601L49.847 320.604L49.847 320.604L49.868 320.608L49.868 320.608L49.905 320.618L49.905 320.618L49.942 320.631L49.942 320.631L49.975 320.647L49.975 320.647L50.007 320.665L50.007 320.665L50.038 320.689L50.038 320.689L50.066 320.714L50.066 320.714L50.091 320.741L50.091 320.741L50.113 320.771L50.113 320.771L50.132 320.804L50.132 320.804L50.149 320.838L50.149 320.838L50.162 320.872L50.162 320.872L50.171 320.911L50.171 320.911L50.174 320.93L50.174 320.93L50.177 320.949L50.177 320.949L50.18 320.969L50.18 320.969L50.18 320.99L50.18 320.99L50.18 322.297L50.18 322.297L50.295 322.317L50.295 322.317L50.411 322.34L50.411 322.34L50.527 322.365L50.527 322.365L50.64 322.391L50.64 322.391L50.752 322.421L50.752 322.421L50.864 322.45L50.864 322.45L50.977 322.483L50.977 322.483L51.087 322.518L51.087 322.518L51.197 322.555L51.197 322.555L51.306 322.592L51.306 322.592L51.413 322.634L51.413 322.634L51.52 322.677L51.52 322.677L51.626 322.72L51.626 322.72L51.732 322.767L51.732 322.767L51.834 322.814L51.834 322.814L51.938 322.864L51.938 322.864L52.709 321.808L52.709 321.808L52.723 321.791L52.723 321.791L52.734 321.776L52.734 321.776L52.749 321.762L52.749 321.762L52.762 321.748L52.762 321.748L52.791 321.723L52.791 321.723L52.823 321.702L52.823 321.702L52.856 321.686L52.856 321.686L52.891 321.67L52.891 321.67L52.928 321.659L52.928 321.659L52.964 321.651L52.964 321.651L53.001 321.648L53.001 321.648L53.039 321.648L53.039 321.648L53.075 321.651L53.075 321.651L53.114 321.658L53.114 321.658L53.15 321.668L53.15 321.668L53.187 321.683L53.187 321.683L53.222 321.7L53.222 321.7L53.24 321.711L53.24 321.711L53.255 321.722L53.255 321.722L54.329 322.495L54.329 322.495L54.343 322.509L54.343 322.509L54.36 322.52L54.36 322.52L54.374 322.536L54.374 322.536L54.388 322.548L54.388 322.548L54.411 322.579L54.411 322.579L54.432 322.611L54.432 322.611L54.452 322.644L54.452 322.644L54.466 322.678L54.466 322.678L54.477 322.715L54.477 322.715L54.484 322.751L54.484 322.751L54.489 322.788L54.489 322.788L54.489 322.824L54.489 322.824L54.485 322.863L54.485 322.863L54.48 322.9L54.48 322.9L54.467 322.936L54.467 322.936L54.455 322.972L54.455 322.972L54.437 323.007L54.437 323.007L54.427 323.024L54.427 323.024L54.414 323.04L54.414 323.04L53.642 324.098L53.642 324.098L53.722 324.18L53.722 324.18L53.801 324.266L53.801 324.266L53.878 324.351L53.878 324.351L53.953 324.438L53.953 324.438L54.027 324.527L54.027 324.527L54.099 324.617L54.099 324.617L54.17 324.708L54.17 324.708L54.24 324.801L54.24 324.801L54.307 324.896L54.307 324.896L54.374 324.99L54.374 324.99L54.437 325.086L54.437 325.086L54.499 325.184L54.499 325.184L54.561 325.282L54.561 325.282L54.618 325.384L54.618 325.384L54.676 325.485L54.676 325.485L54.731 325.588L54.731 325.588L55.978 325.183L55.978 325.183L55.997 325.177L55.997 325.177L56.017 325.173L56.017 325.173L56.036 325.17L56.036 325.17L56.054 325.166L56.054 325.166L56.095 325.163L56.095 325.163L56.132 325.165L56.132 325.165L56.17 325.17L56.17 325.17L56.206 325.177L56.206 325.177L56.242 325.191L56.242 325.191L56.276 325.206L56.276 325.206L56.309 325.224L56.309 325.224L56.34 325.245L56.34 325.245L56.368 325.27L56.368 325.27L56.394 325.298L56.394 325.298L56.418 325.327L56.418 325.327L56.439 325.36L56.439 325.36L56.457 325.395L56.457 325.395L56.464 325.413L56.464 325.413L56.471 325.432L56.471 325.432L56.88 326.686L56.88 326.686L56.885 326.704L56.885 326.704L56.89 326.724L56.89 326.724L56.894 326.744L56.894 326.744L56.897 326.763L56.897 326.763L56.9 326.801L56.9 326.801L56.899 326.84L56.899 326.84L56.893 326.877L56.893 326.877L56.885 326.913L56.885 326.913L56.874 326.949L56.874 326.949L56.857 326.982L56.857 326.982L56.839 327.014L56.839 327.014L56.818 327.046L56.818 327.046L56.793 327.074L56.793 327.074L56.765 327.1L56.765 327.1L56.734 327.125L56.734 327.125L56.702 327.145L56.702 327.145L56.667 327.163L56.667 327.163L56.649 327.171L56.649 327.171L56.63 327.178L56.63 327.178L55.381 327.58L55.381 327.58L55.395 327.694L55.395 327.694L55.41 327.807L55.41 327.807L55.42 327.922L55.42 327.922L55.43 328.038L55.43 328.038L55.438 328.153L55.438 328.153L55.444 328.268L55.444 328.268L55.447 328.384L55.447 328.384L55.448 328.501L55.448 328.501L55.447 328.617L55.447 328.617L55.444 328.734L55.444 328.734L55.438 328.85L55.438 328.85L55.43 328.965L55.43 328.965L55.42 329.08L55.42 329.08L55.41 329.194L55.41 329.194L55.395 329.308L55.395 329.308L55.381 329.42L55.381 329.42L56.63 329.825L56.63 329.825L56.649 329.832L56.649 329.832L56.667 329.84L56.667 329.84L56.702 329.857L56.702 329.857L56.734 329.878L56.734 329.878L56.765 329.901L56.765 329.901L56.793 329.926L56.793 329.926L56.818 329.955L56.818 329.955L56.839 329.986L56.839 329.986L56.857 330.019L56.857 330.019L56.874 330.052L56.874 330.052L56.885 330.088L56.885 330.088L56.893 330.124L56.893 330.124L56.899 330.162L56.899 330.162L56.9 330.199L56.9 330.199L56.897 330.237L56.897 330.237L56.894 330.257L56.894 330.257L56.89 330.277L56.89 330.277L56.885 330.296L56.885 330.296L56.88 330.314L56.88 330.314L56.471 331.571L56.471 331.571L56.464 331.589L56.464 331.589L56.457 331.607L56.457 331.607L56.439 331.641L56.439 331.641L56.418 331.673L56.418 331.673L56.394 331.704L56.394 331.704L56.368 331.731L56.368 331.731L56.34 331.756L56.34 331.756L56.309 331.777L56.309 331.777L56.276 331.795L56.276 331.795L56.242 331.812L56.242 331.812L56.206 331.823L56.206 331.823L56.17 331.831L56.17 331.831L56.132 331.837L56.132 331.837L56.095 331.838L56.095 331.838L56.054 331.837L56.054 331.837L56.036 331.833L56.036 331.833L56.017 331.83L56.017 331.83L55.997 331.824L55.997 331.824L55.978 331.819L55.978 331.819L54.731 331.415L54.731 331.415L54.673 331.518L54.673 331.518L54.618 331.619L54.618 331.619L54.559 331.719L54.559 331.719L54.499 331.819L54.499 331.819L54.437 331.914L54.437 331.914L54.372 332.011L54.372 332.011L54.306 332.107L54.306 332.107L54.239 332.201L54.239 332.201L54.17 332.293L54.17 332.293L54.099 332.383L54.099 332.383L54.027 332.473L54.027 332.473L53.953 332.562L53.953 332.562L53.876 332.649L53.876 332.649L53.801 332.735L53.801 332.735L53.722 332.818L53.722 332.818L53.642 332.903L53.642 332.903L54.414 333.961L54.414 333.961L54.427 333.978L54.427 333.978L54.437 333.996L54.437 333.996L54.455 334.03L54.455 334.03L54.467 334.065L54.467 334.065L54.48 334.102L54.48 334.102L54.485 334.139L54.485 334.139L54.489 334.176L54.489 334.176L54.489 334.213L54.489 334.213L54.484 334.251L54.484 334.251L54.477 334.287L54.477 334.287L54.466 334.323L54.466 334.323L54.453 334.358L54.453 334.358L54.435 334.389L54.435 334.389L54.413 334.423L54.413 334.423L54.388 334.452L54.388 334.452L54.375 334.466L54.375 334.466L54.36 334.478L54.36 334.478L54.346 334.492L54.346 334.492L54.329 334.503L54.329 334.503L53.255 335.278L53.255 335.278L53.24 335.291L53.24 335.291L53.222 335.302L53.222 335.302L53.187 335.32L53.187 335.32L53.15 335.334L53.15 335.334L53.114 335.345L53.114 335.345L53.075 335.352L53.075 335.352L53.039 335.355L53.039 335.355L53.001 335.355L53.001 335.355L52.964 335.349L52.964 335.349L52.928 335.343L52.928 335.343L52.891 335.331L52.891 335.331L52.856 335.317L52.856 335.317L52.823 335.299L52.823 335.299L52.791 335.277L52.791 335.277L52.762 335.252L52.762 335.252L52.749 335.239L52.749 335.239L52.734 335.224L52.734 335.224L52.723 335.21L52.723 335.21L52.709 335.194L52.709 335.194L51.938 334.137L51.938 334.137L51.834 334.186L51.834 334.186L51.732 334.236L51.732 334.236L51.626 334.281L51.626 334.281L51.52 334.326L51.52 334.326L51.413 334.369L51.413 334.369L51.306 334.407L51.306 334.407L51.197 334.448L51.197 334.448L51.087 334.484L51.087 334.484L50.977 334.518L50.977 334.518L50.864 334.55L50.864 334.55L50.752 334.582L50.752 334.582L50.64 334.61L50.64 334.61L50.527 334.638L50.527 334.638L50.411 334.663L50.411 334.663L50.295 334.686L50.295 334.686L50.18 334.706L50.18 334.706L50.18 336.012L50.18 336.012L50.18 336.031L50.18 336.031L50.177 336.051L50.177 336.051L50.174 336.071L50.174 336.071L50.171 336.091L50.171 336.091L50.162 336.127L50.162 336.127L50.149 336.163L50.149 336.163L50.132 336.198L50.132 336.198L50.113 336.228L50.113 336.228L50.091 336.26L50.091 336.26L50.066 336.286L50.066 336.286L50.038 336.313L50.038 336.313L50.007 336.333L50.007 336.333L49.975 336.353L49.975 336.353L49.942 336.369L49.942 336.369L49.905 336.383L49.905 336.383L49.868 336.393L49.868 336.393L49.827 336.397L49.827 336.397L49.808 336.4L49.808 336.4L49.788 336.4L49.788 336.4L48.462 336.4L48.462 336.4L48.441 336.4L48.441 336.4L48.423 336.397L48.423 336.397L48.382 336.393L48.382 336.393L48.346 336.383L48.346 336.383L48.31 336.369L48.31 336.369L48.275 336.353L48.275 336.353L48.244 336.333L48.244 336.333L48.212 336.313L48.212 336.313L48.186 336.286L48.186 336.286L48.159 336.26L48.159 336.26L48.138 336.228L48.138 336.228L48.119 336.198L48.119 336.198L48.102 336.163L48.102 336.163L48.088 336.127L48.088 336.127L48.079 336.091L48.079 336.091L48.076 336.071L48.076 336.071L48.072 336.051L48.072 336.051L48.07 336.031L48.07 336.031L48.07 336.012L48.07 336.012L48.07 334.706L48.07 334.706L47.955 334.686L47.955 334.686L47.839 334.663L47.839 334.663L47.723 334.638L47.723 334.638L47.612 334.61L47.612 334.61L47.498 334.582L47.498 334.582L47.385 334.55L47.385 334.55L47.275 334.518L47.275 334.518L47.165 334.484L47.165 334.484L47.053 334.448L47.053 334.448L46.944 334.407L46.944 334.407L46.837 334.369L46.837 334.369L46.73 334.326L46.73 334.326L46.624 334.281L46.624 334.281L46.519 334.236L46.519 334.236L46.416 334.186L46.416 334.186L46.312 334.137L46.312 334.137L45.541 335.195L45.541 335.195L45.529 335.212L45.529 335.212L45.516 335.227L45.516 335.227L45.502 335.241L45.502 335.241L45.488 335.255L45.488 335.255L45.458 335.278L45.458 335.278L45.427 335.3L45.427 335.3L45.394 335.317L45.394 335.317L45.359 335.331L45.359 335.331L45.322 335.343L45.322 335.343L45.286 335.349L45.286 335.349L45.249 335.355L45.249 335.355L45.211 335.355L45.211 335.355L45.172 335.352L45.172 335.352L45.136 335.345L45.136 335.345L45.098 335.334L45.098 335.334L45.063 335.32L45.063 335.32L45.027 335.302L45.027 335.302L45.01 335.291L45.01 335.291L44.994 335.278L44.994 335.278L43.922 334.503L43.922 334.503L43.908 334.492L43.908 334.492L43.893 334.478L43.893 334.478L43.878 334.466L43.878 334.466L43.865 334.452L43.865 334.452L43.84 334.423L43.84 334.423L43.819 334.389L43.819 334.389L43.801 334.358L43.801 334.358L43.786 334.323L43.786 334.323L43.774 334.287L43.774 334.287L43.767 334.251L43.767 334.251L43.762 334.213L43.762 334.213L43.762 334.176L43.762 334.176L43.766 334.139L43.766 334.139L43.772 334.102L43.772 334.102L43.783 334.065L43.783 334.065L43.797 334.03L43.797 334.03L43.805 334.012L43.805 334.012L43.813 333.996L43.813 333.996L43.825 333.978L43.825 333.978L43.837 333.961L43.837 333.961L44.609 332.903L44.609 332.903L44.528 332.818L44.528 332.818L44.452 332.735L44.452 332.735L44.374 332.649L44.374 332.649L44.297 332.562L44.297 332.562L44.225 332.473L44.225 332.473L44.152 332.383L44.152 332.383L44.081 332.293L44.081 332.293L44.011 332.201L44.011 332.201L43.944 332.107L43.944 332.107L43.88 332.011L43.88 332.011L43.815 331.914L43.815 331.914L43.752 331.819L43.752 331.819L43.694 331.719L43.694 331.719L43.634 331.619L43.634 331.619L43.578 331.518L43.578 331.518L43.521 331.415L43.521 331.415L42.271 331.819L42.271 331.819L42.253 331.824L42.253 331.824L42.233 331.83L42.233 331.83L42.214 331.833L42.214 331.833L42.196 331.837L42.196 331.837L42.155 331.838L42.155 331.838L42.118 331.837L42.118 331.837L42.082 331.831L42.082 331.831L42.044 331.823L42.044 331.823L42.009 331.812L42.009 331.812L41.974 331.795L41.974 331.795L41.941 331.777L41.941 331.777L41.912 331.756L41.912 331.756L41.884 331.731L41.884 331.731L41.857 331.704L41.857 331.704L41.832 331.673L41.832 331.673L41.813 331.641L41.813 331.641L41.794 331.607L41.794 331.607L41.786 331.589L41.786 331.589L41.779 331.571L41.779 331.571L41.37 330.314L41.37 330.314L41.365 330.296L41.365 330.296L41.36 330.277L41.36 330.277L41.357 330.257L41.357 330.257L41.353 330.237L41.353 330.237L41.35 330.199L41.35 330.199L41.351 330.162L41.351 330.162L41.357 330.124L41.357 330.124L41.367 330.088L41.367 330.088L41.378 330.052L41.378 330.052L41.393 330.019L41.393 330.019L41.411 329.986L41.411 329.986L41.434 329.955L41.434 329.955L41.457 329.926L41.457 329.926L41.485 329.901L41.485 329.901L41.514 329.878L41.514 329.878L41.548 329.857L41.548 329.857L41.566 329.848L41.566 329.848L41.584 329.84L41.584 329.84L41.602 329.832L41.602 329.832L41.62 329.825L41.62 329.825L42.87 329.42L42.87 329.42L42.855 329.308L42.855 329.308L42.841 329.194L42.841 329.194L42.83 329.08L42.83 329.08L42.82 328.965L42.82 328.965L42.813 328.85L42.813 328.85L42.806 328.734L42.806 328.734L42.803 328.617L42.803 328.617L42.803 328.501L42.803 328.501L42.803 328.384L42.803 328.384L42.806 328.268L42.806 328.268L42.813 328.153L42.813 328.153L42.82 328.038L42.82 328.038L42.83 327.922L42.83 327.922L42.841 327.807L42.841 327.807L42.855 327.694L42.855 327.694L42.87 327.58L42.87 327.58L41.62 327.178L41.62 327.178L41.602 327.171L41.602 327.171L41.584 327.163L41.584 327.163L41.548 327.145L41.548 327.145L41.514 327.125L41.514 327.125L41.485 327.1L41.485 327.1L41.457 327.074L41.457 327.074L41.434 327.046L41.434 327.046L41.411 327.014L41.411 327.014L41.393 326.982L41.393 326.982L41.378 326.949L41.378 326.949L41.367 326.913L41.367 326.913L41.357 326.877L41.357 326.877L41.351 326.84L41.351 326.84L41.35 326.801L41.35 326.801L41.353 326.763L41.353 326.763L41.357 326.744L41.357 326.744L41.36 326.724L41.36 326.724L41.365 326.704L41.365 326.704L41.37 326.686L41.37 326.686L41.779 325.432L41.779 325.432L41.786 325.413L41.786 325.413L41.794 325.395L41.794 325.395L41.803 325.377L41.803 325.377L41.813 325.36L41.813 325.36L41.832 325.327L41.832 325.327L41.857 325.298L41.857 325.298L41.884 325.27L41.884 325.27L41.912 325.245L41.912 325.245L41.941 325.224L41.941 325.224L41.974 325.206L41.974 325.206L42.009 325.191L42.009 325.191L42.044 325.177L42.044 325.177L42.082 325.17L42.082 325.17L42.118 325.165L42.118 325.165L42.155 325.163L42.155 325.163L42.196 325.166L42.196 325.166L42.214 325.17L42.214 325.17L42.233 325.173L42.233 325.173L42.253 325.177L42.253 325.177L42.271 325.183L42.271 325.183L43.521 325.585L43.521 325.585L43.578 325.484L43.578 325.484L43.634 325.384L43.634 325.384L43.694 325.282L43.694 325.282L43.752 325.184L43.752 325.184L43.815 325.086L43.815 325.086L43.88 324.99L43.88 324.99L43.944 324.896L43.944 324.896L44.011 324.8L44.011 324.8L44.081 324.708L44.081 324.708L44.152 324.617L44.152 324.617L44.225 324.527L44.225 324.527L44.297 324.438L44.297 324.438L44.374 324.351L44.374 324.351L44.452 324.266L44.452 324.266L44.528 324.18L44.528 324.18L44.609 324.098L44.609 324.098L43.836 323.04L43.836 323.04L43.823 323.024L43.823 323.024L43.813 323.007L43.813 323.007L43.804 322.99L43.804 322.99L43.795 322.972L43.795 322.972L43.783 322.936L43.783 322.936L43.77 322.9L43.77 322.9L43.765 322.863L43.765 322.863L43.762 322.824L43.762 322.824L43.762 322.787L43.762 322.787L43.767 322.751L43.767 322.751L43.774 322.713L43.774 322.713L43.786 322.678L43.786 322.678L43.801 322.642L43.801 322.642L43.819 322.609L43.819 322.609L43.84 322.579L43.84 322.579L43.865 322.548L43.865 322.548L43.878 322.534L43.878 322.534L43.893 322.52L43.893 322.52L43.908 322.508L43.908 322.508L43.922 322.495L43.922 322.495L44.996 321.722L44.996 321.722L45.013 321.711L45.013 321.711L45.028 321.7L45.028 321.7L45.047 321.691L45.047 321.691L45.063 321.683L45.063 321.683L45.1 321.668L45.1 321.668L45.136 321.658L45.136 321.658L45.175 321.651L45.175 321.651L45.212 321.648L45.212 321.648L45.249 321.648L45.249 321.648L45.286 321.651L45.286 321.651L45.322 321.659L45.322 321.659L45.359 321.67L45.359 321.67L45.394 321.686L45.394 321.686L45.427 321.702L45.427 321.702L45.458 321.723L45.458 321.723L45.488 321.748L45.488 321.748L45.502 321.762L45.502 321.762L45.516 321.776L45.516 321.776L45.529 321.791L45.529 321.791L45.541 321.808L45.541 321.808L46.312 322.864L46.312 322.864L46.416 322.814L46.416 322.814L46.519 322.767L46.519 322.767L46.624 322.72L46.624 322.72L46.73 322.677L46.73 322.677L46.837 322.634L46.837 322.634L46.944 322.592L46.944 322.592L47.053 322.555L47.053 322.555L47.165 322.518L47.165 322.518L47.275 322.483L47.275 322.483L47.385 322.45L47.385 322.45L47.498 322.421L47.498 322.421L47.612 322.391L47.612 322.391L47.723 322.365L47.723 322.365L47.839 322.34L47.839 322.34L47.955 322.317L47.955 322.317L48.07 322.297L48.07 322.297L48.07 320.99L48.07 320.99L48.07 320.969L48.07 320.969L48.072 320.949L48.072 320.949L48.076 320.93L48.076 320.93L48.079 320.911L48.079 320.911L48.088 320.875L48.088 320.875L48.102 320.838L48.102 320.838L48.119 320.804L48.119 320.804L48.138 320.772L48.138 320.772L48.159 320.741L48.159 320.741L48.186 320.715L48.186 320.715L48.212 320.689L48.212 320.689L48.244 320.667L48.244 320.667L48.275 320.647L48.275 320.647L48.31 320.631L48.31 320.631L48.346 320.618L48.346 320.618L48.382 320.608L48.382 320.608L48.403 320.604L48.403 320.604L48.423 320.601L48.423 320.601L48.441 320.6M49.043 325.355L48.962 325.359L48.962 325.359L48.881 325.363L48.881 325.363L48.802 325.371L48.802 325.371L48.722 325.379L48.722 325.379L48.644 325.392L48.644 325.392L48.566 325.404L48.566 325.404L48.488 325.42L48.488 325.42L48.41 325.436L48.41 325.436L48.335 325.454L48.335 325.454L48.261 325.474L48.261 325.474L48.184 325.496L48.184 325.496L48.112 325.52L48.112 325.52L48.04 325.546L48.04 325.546L47.967 325.572L47.967 325.572L47.896 325.601L47.896 325.601L47.825 325.633L47.825 325.633L47.755 325.664L47.755 325.664L47.686 325.698L47.686 325.698L47.619 325.734L47.619 325.734L47.552 325.771L47.552 325.771L47.486 325.811L47.486 325.811L47.422 325.85L47.422 325.85L47.357 325.893L47.357 325.893L47.296 325.936L47.296 325.936L47.233 325.98L47.233 325.98L47.174 326.026L47.174 326.026L47.114 326.073L47.114 326.073L47.057 326.121L47.057 326.121L47 326.171L47 326.171L46.944 326.223L46.944 326.223L46.89 326.275L46.89 326.275L46.837 326.329L46.837 326.329L46.786 326.386L46.786 326.386L46.735 326.442L46.735 326.442L46.685 326.498L46.685 326.498L46.639 326.558L46.639 326.558L46.593 326.618L46.593 326.618L46.546 326.68L46.546 326.68L46.504 326.743L46.504 326.743L46.462 326.805L46.462 326.805L46.42 326.869L46.42 326.869L46.383 326.934L46.383 326.934L46.346 326.999L46.346 326.999L46.311 327.065L46.311 327.065L46.277 327.134L46.277 327.134L46.243 327.204L46.243 327.204L46.214 327.274L46.214 327.274L46.185 327.345L46.185 327.345L46.157 327.417L46.157 327.417L46.132 327.489L46.132 327.489L46.107 327.563L46.107 327.563L46.086 327.638L46.086 327.638L46.064 327.711L46.064 327.711L46.045 327.789L46.045 327.789L46.029 327.864L46.029 327.864L46.015 327.942L46.015 327.942L46.001 328.019L46.001 328.019L45.991 328.098L45.991 328.098L45.981 328.178L45.981 328.178L45.974 328.258L45.974 328.258L45.97 328.336L45.97 328.336L45.966 328.419L45.966 328.419L45.965 328.499L45.965 328.499L45.966 328.58L45.966 328.58L45.97 328.662L45.97 328.662L45.974 328.741L45.974 328.741L45.981 328.821L45.981 328.821L45.991 328.9L45.991 328.9L46.001 328.979L46.001 328.979L46.015 329.057L46.015 329.057L46.029 329.133L46.029 329.133L46.045 329.211L46.045 329.211L46.064 329.286L46.064 329.286L46.086 329.361L46.086 329.361L46.107 329.434L46.107 329.434L46.132 329.508L46.132 329.508L46.157 329.581L46.157 329.581L46.185 329.653L46.185 329.653L46.214 329.724L46.214 329.724L46.243 329.795L46.243 329.795L46.277 329.863L46.277 329.863L46.311 329.932L46.311 329.932L46.346 330L46.346 330L46.384 330.065L46.384 330.065L46.422 330.132L46.422 330.132L46.463 330.196L46.463 330.196L46.505 330.26L46.505 330.26L46.547 330.321L46.547 330.321L46.594 330.383L46.594 330.383L46.64 330.443L46.64 330.443L46.686 330.501L46.686 330.501L46.736 330.559L46.736 330.559L46.786 330.615L46.786 330.615L46.838 330.67L46.838 330.67L46.891 330.724L46.891 330.724L46.945 330.777L46.945 330.777L47.001 330.828L47.001 330.828L47.058 330.88L47.058 330.88L47.115 330.927L47.115 330.927L47.175 330.975L47.175 330.975L47.234 331.021L47.234 331.021L47.296 331.065L47.296 331.065L47.357 331.11L47.357 331.11L47.423 331.15L47.423 331.15L47.487 331.19L47.487 331.19L47.552 331.229L47.552 331.229L47.619 331.268L47.619 331.268L47.686 331.301L47.686 331.301L47.756 331.336L47.756 331.336L47.825 331.368L47.825 331.368L47.897 331.398L47.897 331.398L47.968 331.429L47.968 331.429L48.04 331.455L48.04 331.455L48.112 331.482L48.112 331.482L48.185 331.504L48.185 331.504L48.261 331.527L48.261 331.527L48.335 331.547L48.335 331.547L48.41 331.565L48.41 331.565L48.488 331.583L48.488 331.583L48.566 331.598L48.566 331.598L48.644 331.609L48.644 331.609L48.722 331.62L48.722 331.62L48.802 331.63L48.802 331.63L48.881 331.637L48.881 331.637L48.962 331.642L48.962 331.642L49.043 331.645L49.043 331.645L49.126 331.645L49.126 331.645L49.207 331.645L49.207 331.645L49.288 331.642L49.288 331.642L49.369 331.637L49.369 331.637L49.448 331.63L49.448 331.63L49.528 331.62L49.528 331.62L49.606 331.609L49.606 331.609L49.684 331.598L49.684 331.598L49.762 331.583L49.762 331.583L49.84 331.565L49.84 331.565L49.915 331.547L49.915 331.547L49.991 331.527L49.991 331.527L50.065 331.504L50.065 331.504L50.138 331.482L50.138 331.482L50.211 331.455L50.211 331.455L50.282 331.429L50.282 331.429L50.355 331.398L50.355 331.398L50.425 331.368L50.425 331.368L50.494 331.336L50.494 331.336L50.564 331.301L50.564 331.301L50.631 331.268L50.631 331.268L50.697 331.229L50.697 331.229L50.763 331.19L50.763 331.19L50.827 331.15L50.827 331.15L50.892 331.11L50.892 331.11L50.955 331.065L50.955 331.065L51.016 331.021L51.016 331.021L51.075 330.975L51.075 330.975L51.135 330.927L51.135 330.927L51.192 330.88L51.192 330.88L51.25 330.828L51.25 330.828L51.305 330.777L51.305 330.777L51.359 330.724L51.359 330.724L51.412 330.67L51.412 330.67L51.464 330.615L51.464 330.615L51.514 330.559L51.514 330.559L51.564 330.501L51.564 330.501L51.611 330.443L51.611 330.443L51.659 330.383L51.659 330.383L51.703 330.321L51.703 330.321L51.745 330.26L51.745 330.26L51.787 330.196L51.787 330.196L51.828 330.132L51.828 330.132L51.866 330.065L51.866 330.065L51.904 330L51.904 330L51.939 329.932L51.939 329.932L51.973 329.863L51.973 329.863L52.007 329.795L52.007 329.795L52.036 329.724L52.036 329.724L52.065 329.653L52.065 329.653L52.093 329.581L52.093 329.581L52.118 329.508L52.118 329.508L52.143 329.434L52.143 329.434L52.164 329.361L52.164 329.361L52.186 329.286L52.186 329.286L52.205 329.211L52.205 329.211L52.221 329.133L52.221 329.133L52.235 329.057L52.235 329.057L52.249 328.979L52.249 328.979L52.26 328.9L52.26 328.9L52.269 328.821L52.269 328.821L52.276 328.741L52.276 328.741L52.28 328.662L52.28 328.662L52.284 328.58L52.284 328.58L52.285 328.499L52.285 328.499L52.284 328.419L52.284 328.419L52.28 328.336L52.28 328.336L52.276 328.258L52.276 328.258L52.269 328.178L52.269 328.178L52.26 328.098L52.26 328.098L52.249 328.019L52.249 328.019L52.235 327.942L52.235 327.942L52.221 327.864L52.221 327.864L52.205 327.789L52.205 327.789L52.186 327.711L52.186 327.711L52.164 327.638L52.164 327.638L52.143 327.563L52.143 327.563L52.118 327.489L52.118 327.489L52.093 327.417L52.093 327.417L52.065 327.345L52.065 327.345L52.036 327.274L52.036 327.274L52.007 327.204L52.007 327.204L51.973 327.134L51.973 327.134L51.939 327.065L51.939 327.065L51.904 326.999L51.904 326.999L51.867 326.934L51.867 326.934L51.83 326.869L51.83 326.869L51.788 326.805L51.788 326.805L51.746 326.743L51.746 326.743L51.704 326.68L51.704 326.68L51.66 326.618L51.66 326.618L51.612 326.558L51.612 326.558L51.565 326.498L51.565 326.498L51.515 326.442L51.515 326.442L51.464 326.386L51.464 326.386L51.413 326.329L51.413 326.329L51.36 326.275L51.36 326.275L51.306 326.223L51.306 326.223L51.251 326.171L51.251 326.171L51.193 326.121L51.193 326.121L51.136 326.073L51.136 326.073L51.076 326.026L51.076 326.026L51.017 325.98L51.017 325.98L50.956 325.936L50.956 325.936L50.893 325.893L50.893 325.893L50.828 325.85L50.828 325.85L50.764 325.811L50.764 325.811L50.698 325.771L50.698 325.771L50.631 325.734L50.631 325.734L50.564 325.698L50.564 325.698L50.495 325.664L50.495 325.664L50.425 325.633L50.425 325.633L50.355 325.601L50.355 325.601L50.283 325.572L50.283 325.572L50.212 325.546L50.212 325.546L50.138 325.52L50.138 325.52L50.066 325.496L50.066 325.496L49.992 325.474L49.992 325.474L49.915 325.454L49.915 325.454L49.84 325.436L49.84 325.436L49.762 325.42L49.762 325.42L49.684 325.404L49.684 325.404L49.606 325.392L49.606 325.392L49.528 325.379L49.528 325.379L49.448 325.371L49.448 325.371L49.369 325.363L49.369 325.363L49.288 325.359L49.288 325.359L49.207 325.355L49.207 325.355L49.126 325.355L49.126 325.355L49.043 325.355z" stroke="none" fill="#FFFFFF" fill-rule="evenodd" /></g><g clip-path="url(#14)"><g clip-path="url(#15)"></g></g></g></g></svg>