<svg xmlns="http://www.w3.org/2000/svg" xmlns:xlink="http://www.w3.org/1999/xlink" id="body_1" preserveAspectRatio="xMinYMin meet" viewBox="0 0 1121 793"><defs><clipPath id="1"><path id="" clip-rule="evenodd" transform="matrix(1 0 0 1 0 0)" d="M0 595L0 -0.2999878L0 -0.2999878L841.9 -0.2999878L841.9 -0.2999878L841.9 595L841.9 595L0 595z" /></clipPath><clipPath id="2"><path id="" clip-rule="evenodd" transform="matrix(1 0 0 1 0 0)" d="M0 -0.2999878L841.9 -0.2999878L841.9 -0.2999878L841.9 595L841.9 595L0 595z" /></clipPath><clipPath id="3"><path id="" clip-rule="evenodd" transform="matrix(1 0 0 1 0 0)" d="M42.95 162.65L550.4 162.65L550.4 162.65L550.4 582.7L550.4 582.7L42.95 582.7z" /></clipPath><clipPath id="4"><path id="" clip-rule="evenodd" transform="matrix(1 0 0 1 0 0)" d="M0 -0.2999878L841.9 -0.2999878L841.9 -0.2999878L841.9 595L841.9 595L0 595z" /></clipPath><clipPath id="5"><path id="" clip-rule="evenodd" transform="matrix(1 0 0 1 0 0)" d="M0 -0.2999878L841.9 -0.2999878L841.9 -0.2999878L841.9 595L841.9 595L0 595z" /></clipPath><clipPath id="6"><path id="" clip-rule="evenodd" transform="matrix(1 0 0 1 0 0)" d="M40.85 58.90002L524.05 58.90002L524.05 58.90002L524.05 124.15L524.05 124.15L40.85 124.15z" /></clipPath><clipPath id="7"><path id="" clip-rule="evenodd" transform="matrix(1 0 0 1 0 0)" d="M0 -0.2999878L841.9 -0.2999878L841.9 -0.2999878L841.9 595L841.9 595L0 595z" /></clipPath><clipPath id="8"><path id="" clip-rule="evenodd" transform="matrix(1 0 0 1 0 0)" d="M71.15 17.40002L143.25 17.40002L143.25 17.40002L143.25 44L143.25 44L71.15 44z" /></clipPath><clipPath id="9"><path id="" clip-rule="evenodd" transform="matrix(1 0 0 1 0 0)" d="M0 -0.2999878L841.9 -0.2999878L841.9 -0.2999878L841.9 595L841.9 595L0 595z" /></clipPath><clipPath id="10"><path id="" clip-rule="evenodd" transform="matrix(1 0 0 1 0 0)" d="M0 -0.2999878L841.9 -0.2999878L841.9 -0.2999878L841.9 595L841.9 595L0 595z" /></clipPath><clipPath id="11"><path id="" clip-rule="evenodd" transform="matrix(1 0 0 1 0 0)" d="M68.95 132.7L141.05 132.7L141.05 132.7L141.05 181L141.05 181L68.95 181z" /></clipPath><clipPath id="12"><path id="" clip-rule="evenodd" transform="matrix(1 0 0 1 0 0)" d="M0 -0.2999878L841.9 -0.2999878L841.9 -0.2999878L841.9 595L841.9 595L0 595z" /></clipPath></defs><g transform="matrix(1.333333 0 0 1.333333 0 0)"><g clip-path="url(#1)"><g clip-path="url(#2)"><g clip-path="url(#3)"></g></g><g clip-path="url(#4)"><path id="619" transform="matrix(1 0 0 -1 0 595)" d="M28.32 446.26C 28.3 452.27 33.18 457.15 39.24 457.18L39.24 457.18L142.2 457.18C 148.22 457.15 153.1 452.27 153.1 446.25C 153.1 440.23 148.22 435.35 142.2 435.34L142.2 435.34L39.24 435.34C 33.18 435.35 28.3 440.23 28.32 446.26" stroke="none" fill="#EDEDED" fill-rule="evenodd" /><path id="620" transform="matrix(1 0 0 -1 0 595)" d="M35.76 446.26C 35.8 452.27 40.68 457.15 46.68 457.18L46.68 457.18L134.76 457.18C 140.72 457.15 145.6 452.27 145.6 446.25C 145.6 440.23 140.72 435.35 134.76 435.34L134.76 435.34L46.68 435.34C 40.68 435.35 35.8 440.23 35.76 446.26" stroke="none" fill="#A6A6A6" fill-rule="evenodd" /><path id="621" transform="matrix(1 0 0 -1 0 595)" d="M32.28 560.86C 32.3 566.975 37.225 571.9 43.32 571.9L43.32 571.9L146.16 571.9C 152.175 571.9 157.1 566.975 157.1 560.9C 157.1 554.825 152.175 549.9 146.16 549.94L146.16 549.94L43.32 549.94C 37.225 549.9 32.3 554.825 32.28 560.86" stroke="none" fill="#EDEDED" fill-rule="evenodd" /><path id="622" transform="matrix(1 0 0 -1 0 595)" d="M39.84 560.86C 39.8 566.975 44.725 571.9 50.76 571.9L50.76 571.9L138.6 571.9C 144.675 571.9 149.6 566.975 149.6 560.9C 149.6 554.825 144.675 549.9 138.6 549.94L138.6 549.94L50.76 549.94C 44.725 549.9 39.8 554.825 39.84 560.86" stroke="none" fill="#A6A6A6" fill-rule="evenodd" /></g><g clip-path="url(#5)"><g clip-path="url(#6)"></g></g><g clip-path="url(#7)"><g clip-path="url(#8)"></g></g><g clip-path="url(#9)"><path id="693" transform="matrix(1 0 0 -1 0 595)" d="M63.6 567.25C 65.09 567.25 66.315 566.252 66.462 564.972L66.462 564.972L66.463 564.953L66.463 564.953L70.027 564.953L70.027 564.953L70.2 564.945L70.2 564.945L70.366 564.914L70.366 564.914L70.516 564.859L70.516 564.859L70.637 564.781L70.637 564.781L70.704 564.734L70.704 564.734L70.757 564.687L70.757 564.687L70.795 564.632L70.795 564.632L70.825 564.577L70.825 564.577L70.862 564.522L70.862 564.522L70.877 564.468L70.877 564.468L70.892 564.405L70.892 564.405L70.9 564.334L70.9 564.334L70.9 561.064L70.9 561.064L70.9 561.064L70.9 561.064L70.9 561.064L70.9 561.064L70.027 560.821L70.027 560.821L69.079 560.563L69.079 560.563L67.95 560.281L67.95 560.281L67.34 560.132L67.34 560.132L66.731 559.991L66.731 559.991L66.121 559.85L66.121 559.85L65.527 559.732L65.527 559.732L64.962 559.63L64.962 559.63L64.45 559.56L64.45 559.56L63.999 559.505L63.999 559.505L63.788 559.489L63.788 559.489L63.6 559.481L63.6 559.481L63.412 559.489L63.412 559.489L63.216 559.505L63.216 559.505L62.757 559.56L62.757 559.56L62.238 559.63L62.238 559.63L61.673 559.732L61.673 559.732L61.079 559.85L61.079 559.85L60.477 559.975L60.477 559.975L59.86 560.116L59.86 560.116L59.258 560.273L59.258 560.273L58.121 560.555L58.121 560.555L57.181 560.805L57.181 560.805L56.3 561.048L56.3 561.048L56.3 561.038L56.3 561.038L56.3 561.038L56.3 561.038L56.3 562.721L56.3 562.721L56.3 564.334L56.3 564.334L56.308 564.405L56.308 564.405L56.323 564.468L56.323 564.468L56.338 564.522L56.338 564.522L56.375 564.577L56.375 564.577L56.413 564.632L56.413 564.632L56.458 564.687L56.458 564.687L56.511 564.734L56.511 564.734L56.556 564.781L56.556 564.781L56.691 564.859L56.691 564.859L56.842 564.914L56.842 564.914L57.007 564.945L57.007 564.945L57.181 564.953L57.181 564.953L60.737 564.953L60.737 564.953L60.738 564.972C 60.885 566.252 62.11 567.25 63.6 567.25M63.6 566.437C 62.46 566.437 61.51 565.847 61.29 565.063L61.29 565.063L61.275 564.953L61.275 564.953L65.925 564.953L65.925 564.953L65.91 565.063C 65.69 565.847 64.74 566.437 63.6 566.437zM63.054 561.625C 62.828 561.625 62.644 561.434 62.644 561.199L62.644 561.199L62.644 561.122C 62.644 560.887 62.828 560.696 63.054 560.696L63.054 560.696L64.146 560.696C 64.372 560.696 64.556 560.887 64.556 561.122L64.556 561.122L64.556 561.199C 64.556 561.434 64.372 561.625 64.146 561.625L64.146 561.625L63.054 561.625zM70.9 560.789L70.9 554.969L70.9 554.969L70.892 554.898L70.892 554.898L70.877 554.836L70.877 554.836L70.862 554.781L70.862 554.781L70.825 554.726L70.825 554.726L70.795 554.671L70.795 554.671L70.757 554.616L70.757 554.616L70.704 554.569L70.704 554.569L70.637 554.522L70.637 554.522L70.516 554.444L70.516 554.444L70.366 554.389L70.366 554.389L70.2 554.358L70.2 554.358L70.027 554.35L70.027 554.35L57.181 554.35L57.181 554.35L57.007 554.358L57.007 554.358L56.842 554.389L56.842 554.389L56.691 554.444L56.691 554.444L56.556 554.522L56.556 554.522L56.511 554.569L56.511 554.569L56.458 554.616L56.458 554.616L56.413 554.671L56.413 554.671L56.375 554.726L56.375 554.726L56.338 554.781L56.338 554.781L56.323 554.836L56.323 554.836L56.308 554.898L56.308 554.898L56.3 554.969L56.3 554.969L56.3 560.774L56.3 560.774L57.181 560.531L57.181 560.531L58.121 560.28L58.121 560.28L59.258 559.998L59.258 559.998L59.86 559.841L59.86 559.841L60.477 559.7L60.477 559.7L61.079 559.575L61.079 559.575L61.673 559.458L61.673 559.458L62.238 559.356L62.238 559.356L62.757 559.285L62.757 559.285L63.216 559.23L63.216 559.23L63.412 559.215L63.412 559.215L63.6 559.207L63.6 559.207L63.788 559.215L63.788 559.215L63.999 559.23L63.999 559.23L64.45 559.285L64.45 559.285L64.962 559.356L64.962 559.356L65.527 559.458L65.527 559.458L66.121 559.575L66.121 559.575L66.731 559.716L66.731 559.716L67.34 559.857L67.34 559.857L67.95 560.006L67.95 560.006L69.079 560.288L69.079 560.288L70.027 560.546L70.027 560.546L70.9 560.789z" stroke="none" fill="#FFFFFF" fill-rule="evenodd" /></g><g clip-path="url(#10)"><g clip-path="url(#11)"></g></g><g clip-path="url(#12)"><path id="698" transform="matrix(1 0 0 -1 0 595)" d="M65.005 453.372C 64.602 453.809 64.007 454.056 63.317 454.056C 62.3 454.056 62.3 454.056 62.3 454.056C 61.877 454.056 61.436 453.79 61.436 453.353C 61.436 452.954 61.858 452.555 62.3 452.555C 63.317 452.555 63.317 452.555 63.317 452.555C 63.796 452.555 64.103 452.232 64.103 451.758C 64.103 439.98 64.103 439.98 64.103 439.98C 64.103 439.505 63.796 439.201 63.317 439.201C 52.302 439.201 52.302 439.201 52.302 439.201C 51.803 439.201 51.247 439.524 51.247 439.98C 51.247 451.758 51.247 451.758 51.247 451.758C 51.247 452.232 51.554 452.555 52.033 452.555C 53.319 452.555 53.319 452.555 53.319 452.555C 53.703 452.555 53.952 452.878 53.952 453.353C 53.952 453.79 53.722 454.056 53.319 454.056C 52.033 454.056 52.033 454.056 52.033 454.056C 50.613 454.056 49.75 453.182 49.75 451.739C 49.75 440.094 49.75 440.094 49.75 440.094C 49.75 438.631 50.69 437.7 52.149 437.7C 63.201 437.7 63.201 437.7 63.201 437.7C 64.756 437.7 65.6 438.555 65.6 440.094C 65.6 451.739 65.6 451.739 65.6 451.739C 65.6 452.403 65.389 452.973 65.005 453.372zM61.513 444.045C 53.837 444.045 53.837 444.045 53.837 444.045C 53.434 444.045 53.089 443.703 53.089 443.285C 53.089 442.886 53.434 442.525 53.837 442.525C 61.532 442.525 61.532 442.525 61.532 442.525C 61.935 442.525 62.3 442.886 62.3 443.285C 62.3 443.304 62.3 443.304 62.3 443.304C 62.261 443.741 61.916 444.045 61.513 444.045zM61.532 449.953C 53.837 449.953 53.837 449.953 53.837 449.953C 53.434 449.953 53.089 449.611 53.089 449.193C 53.089 448.775 53.434 448.433 53.837 448.433C 61.532 448.433 61.532 448.433 61.532 448.433C 61.935 448.433 62.3 448.775 62.3 449.193C 62.3 449.611 61.935 449.953 61.532 449.953zM55.91 452.289C 59.479 452.289 59.479 452.289 59.479 452.289C 60.016 452.289 60.477 452.802 60.477 453.41C 60.477 454.037 60.016 454.55 59.46 454.55C 55.91 454.55 55.91 454.55 55.91 454.55C 55.353 454.55 54.893 454.037 54.893 453.41C 54.893 452.802 55.353 452.289 55.91 452.289zM62.3 446.381C 62.261 446.799 61.916 447.122 61.513 447.122C 53.837 447.122 53.837 447.122 53.837 447.122C 53.434 447.122 53.089 446.78 53.089 446.362C 53.089 445.945 53.434 445.603 53.837 445.603C 61.532 445.603 61.532 445.603 61.532 445.603C 61.935 445.603 62.3 445.945 62.3 446.362C 62.3 446.381 62.3 446.381 62.3 446.381z" stroke="none" fill="#FFFFFF" fill-rule="evenodd" /></g></g></g></svg>